<svg width="503" height="306" viewBox="0 0 503 306" fill="none" xmlns="http://www.w3.org/2000/svg">
<g clip-path="url(#clip0_712_4637)">
<path d="M135.577 17.3133L126.25 17.3638L126.501 63.7791L135.829 63.7286L135.577 17.3133Z" fill="#E3E7F2"/>
<path d="M69.595 17.4385L45.4434 17.5692L45.582 43.1928L69.7336 43.0622L69.595 17.4385Z" fill="#ECF0F1"/>
<path d="M93.6341 17.3084L69.4824 17.4391L69.6211 43.0627L93.7727 42.932L93.6341 17.3084Z" fill="#F5F5F5"/>
<path d="M45.4802 24.645C61.5282 24.781 77.6242 24.645 93.6722 24.429C93.7401 24.429 93.8052 24.402 93.8532 24.354C93.9012 24.306 93.9282 24.2409 93.9282 24.173C93.9282 24.1051 93.9012 24.04 93.8532 23.992C93.8052 23.944 93.7401 23.917 93.6722 23.917C77.6189 23.821 61.5549 23.917 45.4802 24.205C45.429 24.2148 45.3829 24.2421 45.3497 24.2823C45.3165 24.3224 45.2983 24.3729 45.2983 24.425C45.2983 24.4771 45.3165 24.5275 45.3497 24.5677C45.3829 24.6079 45.429 24.6352 45.4802 24.645V24.645Z" fill="#E3E7F2"/>
<path d="M74.2755 42.6369L30.3882 42.8744L30.5012 63.7541L74.3885 63.5166L74.2755 42.6369Z" fill="#ECF0F1"/>
<path d="M117.946 42.4006L74.0586 42.6381L74.1716 63.5178L118.059 63.2803L117.946 42.4006Z" fill="#F5F5F5"/>
<path d="M30.4162 48.6769C59.5682 49.0129 88.8162 48.6769 117.976 48.2449C118.044 48.2449 118.109 48.218 118.157 48.17C118.205 48.122 118.232 48.0568 118.232 47.9889C118.232 47.921 118.205 47.8559 118.157 47.8079C118.109 47.7599 118.044 47.7329 117.976 47.7329C88.8242 47.5809 59.5762 47.5969 30.4162 48.2369C30.3651 48.2467 30.3189 48.2741 30.2857 48.3142C30.2525 48.3544 30.2344 48.4048 30.2344 48.4569C30.2344 48.509 30.2525 48.5595 30.2857 48.5997C30.3189 48.6398 30.3651 48.6671 30.4162 48.6769V48.6769Z" fill="#E3E7F2"/>
<path d="M184.024 63.757H14V71.237H184.024V63.757Z" fill="#E3E7F2"/>
<path d="M48.7438 67.3489H41.8398V92.8769H48.7438V67.3489Z" fill="#E3E7F2"/>
<path d="M151.776 67.3489H144.872V92.8769H151.776V67.3489Z" fill="#E3E7F2"/>
<path d="M144.676 -5.40675e-05L135.348 0.050415L135.693 63.8815L145.021 63.831L144.676 -5.40675e-05Z" fill="#ECF0F1"/>
<path d="M159.463 11.0864L144.967 11.2313L145.485 62.9593L159.981 62.8144L159.463 11.0864Z" fill="#F5F5F5"/>
<path d="M159.152 21.8609C159.152 22.0049 155.904 22.1169 151.904 22.1169C147.904 22.1169 144.656 22.0049 144.656 21.8609C144.656 21.7169 147.904 21.6129 151.904 21.6129C155.904 21.6129 159.152 21.7249 159.152 21.8609Z" fill="#E3E7F2"/>
<path d="M159.152 19.6929C159.152 19.8289 155.904 19.9409 151.904 19.9409C147.904 19.9409 144.656 19.8289 144.656 19.6929C144.656 19.5569 147.904 19.4369 151.904 19.4369C155.904 19.4369 159.152 19.5489 159.152 19.6929Z" fill="#E3E7F2"/>
<path d="M159.152 55.845C159.152 55.981 155.904 56.093 151.904 56.093C147.904 56.093 144.656 55.981 144.656 55.845C144.656 55.709 147.904 55.589 151.904 55.589C155.904 55.589 159.152 55.701 159.152 55.845Z" fill="#E3E7F2"/>
<path d="M159.152 53.6689C159.152 53.8049 155.904 53.9249 151.904 53.9249C147.904 53.9249 144.656 53.8049 144.656 53.6689C144.656 53.5329 147.904 53.4209 151.904 53.4209C155.904 53.4209 159.152 53.5329 159.152 53.6689Z" fill="#E3E7F2"/>
<path d="M152.136 48.9249C152 48.9249 151.888 43.7089 151.888 37.2769C151.888 30.8449 152 25.6129 152.136 25.6129C152.272 25.6129 152.392 30.8369 152.392 37.2769C152.392 43.7169 152.28 48.9249 152.136 48.9249Z" fill="#E3E7F2"/>
<path d="M175.088 24.5969H159.312V63.6449H175.088V24.5969Z" fill="#ECF0F1"/>
<path d="M139.872 13.5969C141.352 13.5969 142.552 12.3971 142.552 10.9169C142.552 9.43682 141.352 8.23694 139.872 8.23694C138.392 8.23694 137.192 9.43682 137.192 10.9169C137.192 12.3971 138.392 13.5969 139.872 13.5969Z" fill="#E3E7F2"/>
<path d="M140.704 18.2849H139.048V56.2609H140.704V18.2849Z" fill="#E3E7F2"/>
<path d="M292.304 96.085L350.48 96.085V11.757L292.304 11.757V96.085Z" fill="white"/>
<path d="M350.488 11.829C347.944 14.9543 345.403 18.0876 342.864 21.229Z" fill="white"/>
<path d="M350.48 96.0849C349.127 94.7137 347.876 93.2458 346.736 91.6929C345.488 90.2268 344.346 88.6735 343.32 87.0449C344.674 88.4149 345.925 89.8829 347.064 91.4369C348.31 92.904 349.452 94.4572 350.48 96.0849V96.0849Z" fill="#E3E7F2"/>
<path d="M387.8 5H446.512V90.128H388.2L387.8 5Z" fill="#E3E7F2"/>
<path d="M441.976 5V90.128H383V5H441.976ZM441.176 89.328V5.8H383.8V89.328H441.176Z" fill="#E3E7F2"/>
<path d="M434.344 14.536H390.624V80.592H434.344V14.536Z" fill="white"/>
<path d="M390.632 14.536C390.632 14.536 390.632 14.648 390.632 14.864C390.632 15.08 390.632 15.392 390.632 15.8C390.632 16.6373 390.632 17.8453 390.632 19.424C390.632 22.624 390.632 27.216 390.68 33.024C390.68 44.672 390.736 61.16 390.776 80.576L390.584 80.384H434.304L434.096 80.592C434.096 55.672 434.096 32.696 434.144 14.536L434.304 14.704L402.496 14.616L393.696 14.568H391.392H390.592C390.592 14.568 390.848 14.568 391.392 14.568H393.672H402.432L434.344 14.48H434.512V14.648C434.512 32.808 434.512 55.784 434.512 80.704V80.912H434.304H390.584H390.392V80.72C390.432 61.256 390.464 44.72 390.488 33.04C390.488 27.232 390.528 22.64 390.544 19.44C390.544 17.84 390.544 16.68 390.544 15.848C390.544 15.456 390.544 15.152 390.544 14.936C390.544 14.72 390.632 14.536 390.632 14.536Z" fill="#E3E7F2"/>
<path d="M383.232 89.7281C383.492 89.2117 383.808 88.726 384.176 88.2801C384.8 87.4161 385.68 86.2401 386.696 84.9681C387.712 83.6961 388.672 82.5681 389.392 81.7681C389.754 81.3186 390.167 80.9131 390.624 80.5601C390.712 80.6401 389.024 82.672 387.024 85.2C385.858 86.7888 384.591 88.3013 383.232 89.7281V89.7281Z" fill="#E3E7F2"/>
<path d="M383.432 5.40002C384.792 6.79125 386.053 8.27478 387.208 9.84002C388.461 11.3205 389.606 12.89 390.632 14.536C389.273 13.1448 388.011 11.6613 386.856 10.096C385.603 8.61552 384.458 7.04607 383.432 5.40002V5.40002Z" fill="#E3E7F2"/>
<path d="M433.96 14.872C435.065 13.1904 436.284 11.5866 437.608 10.072C438.836 8.46019 440.173 6.93398 441.608 5.50403C440.502 7.18413 439.283 8.78776 437.96 10.304C436.735 11.9183 435.399 13.4447 433.96 14.872V14.872Z" fill="#E3E7F2"/>
<path d="M415.304 48.528H407.616L406.696 50.648C406.437 51.1983 406.285 51.7929 406.248 52.4C406.234 52.6713 406.296 52.9412 406.426 53.1798C406.555 53.4185 406.749 53.6165 406.984 53.752C407.669 54.0006 408.392 54.1305 409.12 54.136V54.728H401.88V54.136C402.616 54.0409 403.296 53.6963 403.808 53.16C404.586 52.1628 405.213 51.0579 405.672 49.88L413.456 32.496H413.76L421.616 50.36C422.045 51.5242 422.67 52.6065 423.464 53.56C423.899 53.9219 424.443 54.1276 425.008 54.144V54.736H414.472V54.144H414.904C415.52 54.1941 416.138 54.0722 416.688 53.792C416.803 53.706 416.895 53.5933 416.957 53.4637C417.018 53.334 417.047 53.1913 417.04 53.048C417.039 52.8469 417.007 52.6471 416.944 52.456C416.944 52.36 416.76 51.96 416.464 51.248L415.304 48.528ZM414.76 47.336L411.512 39.84L408.176 47.336H414.76Z" fill="#E3E7F2"/>
<path d="M111.8 212.92L114.784 223.4L399.352 306.04L497.232 241.448V232.632L111.8 212.92Z" fill="#E3E7F2"/>
<path d="M213.888 165.504L497.232 232.632L399.352 296.504L111.8 212.92L213.888 165.504Z" fill="#ECF0F1"/>
<path d="M406.728 292.088C405.655 294.448 404.459 296.75 403.144 298.984C401.949 301.286 400.63 303.521 399.192 305.68C401.458 301.015 403.973 296.475 406.728 292.08V292.088Z" fill="#ECF0F1"/>
<path d="M416.08 286C415.007 288.36 413.811 290.662 412.496 292.896C411.301 295.198 409.982 297.433 408.544 299.592C410.81 294.927 413.325 290.387 416.08 285.992V286Z" fill="#ECF0F1"/>
<path d="M425.432 279.888C424.359 282.248 423.163 284.55 421.848 286.784C420.655 289.087 419.336 291.323 417.896 293.48C420.162 288.815 422.677 284.275 425.432 279.88V279.888Z" fill="#ECF0F1"/>
<path d="M434.8 273.792C433.727 276.152 432.531 278.454 431.216 280.688C430.021 282.99 428.701 285.225 427.264 287.384C429.529 282.719 432.045 278.179 434.8 273.784V273.792Z" fill="#ECF0F1"/>
<path d="M444.136 267.696C443.063 270.056 441.867 272.358 440.552 274.592C439.357 276.894 438.037 279.129 436.6 281.288C437.669 278.924 438.866 276.619 440.184 274.384C441.377 272.084 442.697 269.851 444.136 267.696V267.696Z" fill="#ECF0F1"/>
<path d="M453.488 261.592C452.415 263.952 451.219 266.254 449.904 268.488C448.711 270.791 447.392 273.027 445.952 275.184C448.217 270.519 450.733 265.979 453.488 261.584V261.592Z" fill="#ECF0F1"/>
<path d="M462.84 255.496C461.767 257.856 460.571 260.158 459.256 262.392C458.061 264.694 456.741 266.929 455.304 269.088C457.569 264.423 460.085 259.883 462.84 255.488V255.496Z" fill="#ECF0F1"/>
<path d="M472.192 249.4C471.115 251.758 469.919 254.06 468.608 256.296C467.414 258.596 466.095 260.829 464.656 262.984C465.725 260.622 466.921 258.32 468.24 256.088C469.434 253.788 470.753 251.555 472.192 249.4V249.4Z" fill="#ECF0F1"/>
<path d="M481.544 243.296C480.471 245.656 479.275 247.958 477.96 250.192C476.765 252.494 475.446 254.729 474.008 256.888C476.274 252.223 478.789 247.683 481.544 243.288V243.296Z" fill="#ECF0F1"/>
<path d="M490.896 237.2C489.823 239.56 488.627 241.862 487.312 244.096C486.117 246.401 484.798 248.639 483.36 250.8C484.43 248.436 485.626 246.131 486.944 243.896C488.137 241.593 489.457 239.358 490.896 237.2V237.2Z" fill="#ECF0F1"/>
<path d="M497.24 236.528C496.669 237.98 495.973 239.38 495.16 240.712C494.463 242.115 493.644 243.453 492.712 244.712C493.279 243.258 493.975 241.858 494.792 240.528C495.483 239.122 496.302 237.783 497.24 236.528Z" fill="#ECF0F1"/>
<path d="M396.848 305.2C396.249 304.717 395.695 304.182 395.192 303.6C394.208 302.552 392.896 301.064 391.512 299.376C390.128 297.688 388.92 296.112 388.08 294.952C387.591 294.351 387.165 293.703 386.808 293.016C387.355 293.561 387.858 294.15 388.312 294.776L391.832 299.112L395.408 303.4C395.935 303.96 396.417 304.562 396.848 305.2V305.2Z" fill="#ECF0F1"/>
<path d="M383.656 301.408C383.052 300.931 382.498 300.395 382 299.808C381.016 298.76 379.704 297.28 378.32 295.592C376.936 293.904 375.728 292.328 374.888 291.168C374.4 290.564 373.974 289.913 373.616 289.224C374.161 289.772 374.664 290.36 375.12 290.984L378.64 295.328C379.992 296.928 381.216 298.408 382.216 299.616C382.744 300.173 383.226 300.772 383.656 301.408V301.408Z" fill="#ECF0F1"/>
<path d="M370.464 297.656C369.86 297.179 369.306 296.643 368.808 296.056C367.824 295.008 366.512 293.528 365.128 291.84C363.744 290.152 362.536 288.576 361.696 287.416C361.206 286.813 360.78 286.162 360.424 285.472C360.972 286.017 361.475 286.606 361.928 287.232L365.448 291.576L369.024 295.864C369.55 296.423 370.031 297.022 370.464 297.656V297.656Z" fill="#ECF0F1"/>
<path d="M357.272 293.912C356.671 293.432 356.116 292.896 355.616 292.312C354.632 291.264 353.32 289.776 351.936 288.088C350.552 286.4 349.344 284.824 348.504 283.664C348.016 283.063 347.59 282.415 347.232 281.728C347.782 282.271 348.286 282.86 348.736 283.488L352.256 287.824L355.832 292.112C356.362 292.67 356.844 293.272 357.272 293.912V293.912Z" fill="#ECF0F1"/>
<path d="M344.08 290.16C343.477 289.683 342.922 289.147 342.424 288.56C341.44 287.512 340.128 286.032 338.744 284.344C337.36 282.656 336.152 281.08 335.312 279.92C334.825 279.316 334.398 278.665 334.04 277.976C334.588 278.521 335.091 279.11 335.544 279.736L339.064 284.08C340.416 285.68 341.64 287.16 342.64 288.368C343.171 288.922 343.653 289.522 344.08 290.16V290.16Z" fill="#ECF0F1"/>
<path d="M330.888 286.408C330.284 285.931 329.729 285.395 329.232 284.808C328.248 283.76 326.936 282.28 325.552 280.592C324.168 278.904 322.96 277.328 322.12 276.168C321.63 275.565 321.204 274.914 320.848 274.224C321.397 274.771 321.9 275.362 322.352 275.992L325.872 280.328L329.448 284.616C329.977 285.172 330.458 285.772 330.888 286.408Z" fill="#ECF0F1"/>
<path d="M317.696 282.664C317.092 282.187 316.538 281.651 316.04 281.064C315.056 280.016 313.744 278.536 312.36 276.84C310.976 275.144 309.768 273.576 308.928 272.416C308.44 271.815 308.013 271.167 307.656 270.48C308.206 271.023 308.709 271.612 309.16 272.24L312.68 276.576L316.256 280.864C316.786 281.422 317.268 282.024 317.696 282.664V282.664Z" fill="#ECF0F1"/>
<path d="M304.504 278.168C303.9 277.691 303.346 277.155 302.848 276.568C301.872 275.52 300.552 274.04 299.168 272.352C297.784 270.664 296.576 269.088 295.736 267.928C295.246 267.325 294.82 266.674 294.464 265.984C295.012 266.529 295.515 267.118 295.968 267.744L299.488 272.088L303.064 276.376C303.593 276.932 304.075 277.532 304.504 278.168V278.168Z" fill="#ECF0F1"/>
<path d="M289.824 274.088C289.217 273.612 288.659 273.076 288.16 272.488C287.184 271.44 285.872 269.96 284.48 268.272C283.088 266.584 281.888 265.008 281.056 263.848C280.572 263.24 280.143 262.589 279.776 261.904C280.328 262.447 280.834 263.036 281.288 263.664L284.8 268.008C286.16 269.608 287.384 271.096 288.384 272.296C288.912 272.853 289.394 273.452 289.824 274.088V274.088Z" fill="#ECF0F1"/>
<path d="M275.136 270C274.532 269.523 273.978 268.987 273.48 268.4C272.496 267.352 271.184 265.872 269.8 264.184C268.416 262.496 267.208 260.92 266.368 259.752C265.88 259.151 265.453 258.503 265.096 257.816C265.646 258.359 266.149 258.948 266.6 259.576C267.584 260.792 268.792 262.272 270.12 263.92L273.696 268.2C274.226 268.758 274.708 269.36 275.136 270V270Z" fill="#ECF0F1"/>
<path d="M260.4 265.264C259.796 264.787 259.241 264.251 258.744 263.664C257.768 262.616 256.448 261.136 255.064 259.448C253.68 257.76 252.4 256.16 251.6 255C251.112 254.396 250.686 253.745 250.328 253.056C250.876 253.601 251.379 254.19 251.832 254.816L255.352 259.16L258.928 263.448C259.469 264.011 259.961 264.618 260.4 265.264V265.264Z" fill="#ECF0F1"/>
<path d="M245.584 261.128C244.98 260.651 244.426 260.115 243.928 259.528C242.952 258.48 241.632 257 240.248 255.312C238.864 253.624 237.656 252.048 236.816 250.888C236.328 250.284 235.902 249.633 235.544 248.944C236.092 249.489 236.595 250.078 237.048 250.704C238.04 251.92 239.24 253.408 240.568 255.048L244.152 259.336C244.68 259.891 245.159 260.49 245.584 261.128V261.128Z" fill="#ECF0F1"/>
<path d="M230.72 256.784C230.116 256.307 229.562 255.771 229.064 255.184C228.08 254.136 226.768 252.656 225.376 250.968C223.984 249.28 222.792 247.704 221.952 246.536C221.467 245.931 221.038 245.283 220.672 244.6C221.227 245.141 221.733 245.73 222.184 246.36L225.704 250.704L229.28 254.984C229.807 255.544 230.289 256.146 230.72 256.784V256.784Z" fill="#ECF0F1"/>
<path d="M216.4 252.76C215.796 252.283 215.242 251.747 214.744 251.16C213.76 250.112 212.448 248.632 211.064 246.944C209.68 245.256 208.472 243.68 207.632 242.512C207.144 241.911 206.718 241.263 206.36 240.576C206.908 241.121 207.411 241.71 207.864 242.336C208.848 243.552 210.056 245.032 211.384 246.68L214.96 250.96C215.487 251.52 215.969 252.122 216.4 252.76V252.76Z" fill="#ECF0F1"/>
<path d="M201.712 248.92C201.108 248.443 200.554 247.907 200.056 247.32C199.08 246.272 197.768 244.792 196.376 243.104C194.984 241.416 193.784 239.84 192.944 238.672C192.459 238.069 192.033 237.42 191.672 236.736C192.224 237.279 192.73 237.868 193.184 238.496L196.696 242.84L200.28 247.128C200.81 247.681 201.29 248.281 201.712 248.92V248.92Z" fill="#ECF0F1"/>
<path d="M188.808 244.616C188.204 244.139 187.65 243.603 187.152 243.016C186.176 241.968 184.864 240.488 183.472 238.8C182.08 237.112 180.88 235.536 180.04 234.368C179.565 233.753 179.149 233.094 178.8 232.4C179.355 232.941 179.861 233.53 180.312 234.16L183.824 238.504L187.408 242.784C187.928 243.352 188.397 243.965 188.808 244.616V244.616Z" fill="#ECF0F1"/>
<path d="M175.904 240.312C175.302 239.832 174.748 239.297 174.248 238.712C173.272 237.664 171.96 236.184 170.568 234.488C169.176 232.792 167.976 231.224 167.136 230.064C166.651 229.461 166.225 228.812 165.864 228.128C166.419 228.669 166.924 229.258 167.376 229.888L170.888 234.224L174.472 238.512C175.002 239.068 175.481 239.671 175.904 240.312V240.312Z" fill="#ECF0F1"/>
<path d="M164.208 237.112C163.604 236.635 163.05 236.099 162.552 235.512C161.568 234.464 160.256 232.984 158.872 231.296C157.488 229.608 156.28 228.032 155.44 226.864C154.952 226.263 154.526 225.615 154.168 224.928C154.716 225.473 155.219 226.062 155.672 226.688L159.192 231.024L162.8 235.288C163.317 235.857 163.788 236.467 164.208 237.112V237.112Z" fill="#ECF0F1"/>
<path d="M150.8 233.448C150.196 232.971 149.642 232.435 149.144 231.848C148.16 230.8 146.848 229.32 145.464 227.624C144.08 225.928 142.872 224.36 142.032 223.2C141.544 222.599 141.117 221.951 140.76 221.264C141.31 221.807 141.813 222.396 142.264 223.024L145.784 227.36L149.36 231.6C149.892 232.173 150.374 232.791 150.8 233.448V233.448Z" fill="#ECF0F1"/>
<path d="M138.6 229.904C137.997 229.424 137.439 228.888 136.936 228.304C135.96 227.264 134.648 225.776 133.256 224.088C131.864 222.4 130.664 220.824 129.832 219.664C129.343 219.059 128.914 218.408 128.552 217.72C129.105 218.265 129.611 218.857 130.064 219.488L133.576 223.824L137.2 228.08C137.714 228.65 138.183 229.26 138.6 229.904Z" fill="#ECF0F1"/>
<path d="M124.808 225.6C124.208 225.118 123.654 224.582 123.152 224C122.168 222.952 120.856 221.472 119.464 219.784C118.072 218.096 116.88 216.52 116.04 215.36C115.553 214.753 115.125 214.103 114.76 213.416C115.313 213.961 115.819 214.553 116.272 215.184L119.792 219.52L123.368 223.808C123.895 224.366 124.376 224.965 124.808 225.6V225.6Z" fill="#ECF0F1"/>
<path d="M170.448 219.448C169.166 218.906 168.058 218.023 167.243 216.894C166.429 215.765 165.941 214.435 165.831 213.047C165.721 211.66 165.994 210.269 166.621 209.026C167.247 207.784 168.203 206.737 169.384 206C173.245 203.685 177.597 202.315 182.088 202C186.937 201.549 191.816 202.44 196.192 204.576C201.704 207.264 201.84 216.008 195.616 219.064C186.68 223.408 179.128 223.168 170.448 219.448Z" fill="#263238"/>
<path d="M179.68 111.968L180.48 111.88L183.096 111.632H183.152V111.688C183.392 122.176 184 160.04 184.648 205.088C184.648 205.184 184.648 205.28 184.648 205.36V205.56H184.456L181.52 205.8H181.304V205.584L180.08 139.184C179.936 130.752 179.824 123.936 179.744 119.184C179.744 116.848 179.688 115.032 179.672 113.784C179.672 113.184 179.672 112.72 179.672 112.392C179.672 112.064 179.672 111.92 179.672 111.92C179.672 111.92 179.672 112.096 179.672 112.416C179.672 112.736 179.672 113.216 179.72 113.84C179.72 115.096 179.792 116.928 179.856 119.288C179.96 124.016 180.12 130.848 180.312 139.288C180.704 156.24 181.2 179.6 181.736 205.608L181.512 205.4L184.44 205.16L184.248 205.368V205.096C183.6 160.048 183.128 122.176 183.064 111.688L183.12 111.736L180.528 111.92L179.68 111.968Z" fill="#263238"/>
<path d="M174 120.832L174.416 120.544L175.704 119.68L180.696 116.4L199.096 104.24L260.352 63.92L260.536 63.8L260.648 63.984L262.504 66.976L262.696 67.288L262.8 67.4641L262.632 67.576C220.296 94.928 184.832 117.752 175.648 123.576L175.6 123.6V123.56L174.408 121.496C174.152 121.056 174.048 120.84 174.048 120.84C174.048 120.84 174.192 121.064 174.456 121.504C174.72 121.944 175.136 122.608 175.68 123.512H175.616C184.704 117.528 220.096 94.584 262.424 67.232L262.36 67.52C262.302 67.4126 262.238 67.3084 262.168 67.208C261.536 66.176 260.904 65.16 260.312 64.208L260.608 64.272L199.36 104.344L180.848 116.4L175.808 119.68L174.488 120.528C174.184 120.744 174 120.832 174 120.832Z" fill="#263238"/>
<path d="M185.52 118.744C185.549 119.627 185.317 120.498 184.851 121.248C184.385 121.998 183.707 122.594 182.903 122.959C182.099 123.323 181.205 123.442 180.333 123.298C179.462 123.155 178.653 122.756 178.008 122.153C177.363 121.55 176.912 120.769 176.711 119.909C176.51 119.049 176.569 118.149 176.88 117.322C177.191 116.496 177.74 115.78 178.457 115.266C179.175 114.751 180.029 114.461 180.912 114.432C182.094 114.393 183.244 114.826 184.108 115.634C184.972 116.443 185.48 117.561 185.52 118.744V118.744Z" fill="#263238"/>
<path d="M257.12 71.088C257.12 71.088 246.424 77.16 253.832 102.72C253.832 102.72 283.056 102.352 293.984 85.664C293.984 85.664 283.584 63.928 270.424 66.072L257.12 71.088Z" fill="#00AEC7"/>
<path d="M257.456 66.552L255.112 60.4C254.864 59.7529 254.756 59.0608 254.793 58.369C254.831 57.6771 255.014 57.001 255.33 56.3844C255.646 55.7679 256.089 55.2249 256.629 54.7906C257.169 54.3564 257.794 54.0407 258.464 53.864V53.864C259.639 53.5508 260.889 53.6821 261.974 54.2326C263.059 54.7832 263.902 55.7143 264.344 56.848L266.968 63.616L257.456 66.552Z" fill="#00AEC7"/>
<path d="M257.12 71.0881L257.304 66.1681L266.456 62.3041L270.424 66.0721L257.12 71.0881Z" fill="#263238"/>
<path d="M199.36 207.456C199.381 207.602 199.381 207.75 199.36 207.896C199.335 208.321 199.282 208.743 199.2 209.16C198.883 210.7 198.218 212.148 197.256 213.392C195.795 215.216 193.888 216.632 191.72 217.504C189.082 218.562 186.274 219.133 183.432 219.192C181.928 219.256 180.456 219.192 179.04 219.152C177.676 219.091 176.318 218.936 174.976 218.688C172.66 218.328 170.496 217.309 168.744 215.752C167.569 214.683 166.734 213.292 166.344 211.752C166.254 211.337 166.206 210.913 166.2 210.488C166.187 210.342 166.187 210.194 166.2 210.048C166.258 210.608 166.349 211.163 166.472 211.712C166.897 213.185 167.729 214.507 168.872 215.528C170.605 217.009 172.721 217.971 174.976 218.304C176.298 218.538 177.635 218.682 178.976 218.736C180.376 218.808 181.84 218.832 183.32 218.736C186.113 218.689 188.876 218.147 191.48 217.136C193.605 216.307 195.483 214.95 196.936 213.192C197.897 211.992 198.584 210.597 198.952 209.104C199.288 208.064 199.312 207.456 199.36 207.456Z" fill="#455A64"/>
<path d="M289.472 80.4C289.391 80.515 289.297 80.6197 289.192 80.712L288.344 81.512C287.976 81.872 287.544 82.312 286.952 82.776C286.36 83.24 285.776 83.808 285.032 84.376C284.288 84.944 283.512 85.56 282.632 86.176C281.752 86.792 280.768 87.424 279.744 88.08C277.475 89.4458 275.124 90.6695 272.704 91.744C270.266 92.7838 267.765 93.6683 265.216 94.392C264.032 94.696 262.92 95.008 261.848 95.192C260.776 95.376 259.792 95.592 258.88 95.736C257.968 95.88 257.144 95.976 256.416 96.056C255.688 96.136 255.056 96.192 254.544 96.216L253.36 96.272C253.222 96.2912 253.082 96.2912 252.944 96.272C253.075 96.2278 253.213 96.2035 253.352 96.2L254.528 96.064C255.04 96.016 255.664 95.952 256.384 95.832C257.104 95.712 257.936 95.64 258.832 95.456C259.728 95.272 260.728 95.12 261.776 94.864C262.824 94.608 263.944 94.328 265.112 94.016C270.165 92.5625 275.006 90.4539 279.512 87.744C280.536 87.096 281.528 86.504 282.408 85.88C283.288 85.256 284.112 84.688 284.808 84.136C285.504 83.584 286.184 83.056 286.752 82.6C287.32 82.144 287.808 81.744 288.192 81.4L289.088 80.6C289.206 80.5155 289.335 80.4481 289.472 80.4V80.4Z" fill="white"/>
<path d="M354.272 283.112C356.895 283.079 359.473 282.42 361.79 281.192C364.108 279.963 366.1 278.2 367.6 276.048C368.952 274.08 370 271.696 372.064 270.544C375.448 268.688 379.48 270.952 382.944 272.64C390.064 276.104 398.84 277.112 405.808 273.352C409.408 271.408 412.376 268.304 416.208 266.952C419.712 265.704 423.56 266.04 427.264 266.424C430.968 266.808 434.784 267.224 438.344 266.128C441.904 265.032 445.144 261.992 445.232 258.272C445.304 254.832 442.656 251.8 439.504 250.424C436.352 249.048 432.8 249.032 429.376 249.192C410.232 250.096 391.44 256.128 372.296 255.28C368.56 255.112 364.504 254.752 361.36 256.784C357.248 259.424 356.336 264.976 356.192 269.864C356.048 274.752 356.104 280.12 352.952 283.856" fill="#E3E7F2"/>
<path d="M353.44 237.488C352.774 238.625 352.18 239.803 351.664 241.016C350.912 243.544 348.152 252.536 351.664 257.232C355.664 262.536 378.064 262.392 379.864 262.368H380.088L412.68 260.064C413.024 260.042 413.363 259.975 413.688 259.864L441.648 250.264C442.326 250.03 442.928 249.618 443.392 249.072V249.072C443.729 248.667 443.983 248.199 444.139 247.695C444.294 247.191 444.349 246.661 444.299 246.137C444.249 245.612 444.096 245.102 443.848 244.636C443.601 244.171 443.264 243.759 442.856 243.424L421.928 226.472C421.498 226.119 420.996 225.865 420.456 225.728C407.187 222.443 393.378 221.963 379.912 224.32C366.704 226.744 360.064 228.648 353.44 237.488Z" fill="#ED8B00"/>
<path d="M440.552 249.64C439.751 250.217 439.2 251.078 439.013 252.048C438.825 253.017 439.016 254.022 439.544 254.856C440.856 256.76 443.792 257 445.76 255.792C447.728 254.584 448.84 252.32 449.296 250.048C449.608 248.448 449.568 246.576 448.368 245.48C447.477 244.809 446.403 244.424 445.288 244.376C442.175 243.96 439.038 243.744 435.896 243.728" fill="#ED8B00"/>
<g opacity="0.3">
<path d="M430.472 244.672C432.648 245.472 437.304 246.88 439.608 246.952C440.763 247.037 441.923 246.862 443.001 246.44C444.08 246.018 445.05 245.359 445.84 244.512C446.057 244.189 446.328 243.905 446.64 243.672C446.795 243.553 446.985 243.489 447.18 243.489C447.375 243.489 447.565 243.553 447.72 243.672C448.08 244.016 447.912 244.616 447.72 245.064C447.042 246.33 446.044 247.396 444.825 248.156C443.607 248.917 442.211 249.346 440.776 249.4C437.912 249.472 431.976 247.136 430.512 244.664" fill="black"/>
</g>
<path d="M430.904 218.256C430.904 218.256 417.72 220.128 421.36 234.496C425 248.864 439.584 248.224 442.16 247.848C442.998 247.679 443.797 247.359 444.52 246.904C446.466 245.74 448.112 244.135 449.325 242.219C450.538 240.303 451.284 238.129 451.504 235.872L451.584 235.176L459.256 227.976C459.256 227.976 457.04 226.768 449.176 227.664L439.576 220.28C439.576 220.28 440.688 211.328 439.52 210.68C438.352 210.032 430.904 218.256 430.904 218.256Z" fill="#ED8B00"/>
<path d="M351.464 243C349.064 247.2 349.968 252.408 350.864 257.152C351.76 261.896 352.52 267.152 349.984 271.256C349.025 272.769 347.681 274 346.09 274.824C344.499 275.648 342.718 276.034 340.928 275.944C337.872 275.752 335.112 274.184 332.272 273.048C329.432 271.912 326.072 271.232 323.416 272.752C320.584 274.352 319.496 278.16 320.392 281.296C321.288 284.432 323.824 286.896 326.68 288.44C332.688 291.704 340.28 291.384 346.368 288.192C352.456 285 356.872 279.192 359.048 272.712C361.224 266.232 361.248 259.152 359.808 252.472" fill="#ED8B00"/>
<path d="M436.056 232.184L436.336 236.128L439.536 234.856C439.536 234.856 438.376 232.44 436.056 232.184Z" fill="#263238"/>
<g opacity="0.3">
<path d="M394.528 261.544C395.608 261.116 396.55 260.402 397.255 259.479C397.959 258.556 398.4 257.458 398.528 256.304C398.756 253.969 398.112 251.633 396.72 249.744C395.177 247.61 393.013 246.004 390.523 245.145C388.033 244.286 385.339 244.216 382.808 244.944C381.864 245.24 380.848 245.744 380.624 246.72C380.558 247.113 380.597 247.516 380.738 247.888C380.878 248.261 381.115 248.589 381.424 248.84C382.05 249.335 382.742 249.738 383.48 250.04C385.994 251.302 388.197 253.104 389.933 255.316C391.668 257.529 392.893 260.098 393.52 262.84" fill="black"/>
</g>
<path d="M376.952 243.792C379.43 243.37 381.973 243.555 384.363 244.332C386.753 245.11 388.918 246.455 390.674 248.254C392.429 250.052 393.722 252.25 394.44 254.659C395.159 257.067 395.283 259.614 394.8 262.08C396.824 262.712 399.008 262.232 401.088 261.848C403.168 261.464 405.456 261.208 407.32 262.216C409.184 263.224 410.192 266 408.728 267.528C407.891 268.231 406.857 268.658 405.768 268.752C399.88 269.864 393.768 270.976 387.96 269.552C384.496 268.696 381.328 266.968 378.2 265.264C374.728 263.376 375.04 264.072 371.576 262.184" fill="#ED8B00"/>
<g opacity="0.3">
<path d="M433.312 252.544L430.112 251.744C428.596 251.462 427.129 250.958 425.76 250.248C425.076 249.889 424.478 249.388 424.004 248.778C423.531 248.168 423.194 247.463 423.016 246.712C422.792 245.44 423.4 243.912 424.616 243.584C425.608 243.32 426.608 243.864 427.488 244.384C429.984 245.856 432.475 247.333 434.96 248.816C435.541 249.082 436.022 249.524 436.336 250.08C436.477 250.483 436.483 250.92 436.355 251.326C436.227 251.733 435.97 252.087 435.624 252.336C434.919 252.818 434.078 253.062 433.224 253.032" fill="black"/>
</g>
<path d="M409.736 248.456C409.881 250.182 410.397 251.856 411.247 253.365C412.097 254.874 413.263 256.182 414.664 257.2C417.502 259.229 420.912 260.3 424.4 260.256C427.856 260.256 431.416 259.456 434.712 260.464C436.848 261.136 438.712 262.56 440.792 263.296C442.872 264.032 445.672 263.824 446.84 261.92C447.92 260.168 447.088 257.752 445.536 256.408C443.984 255.064 441.912 254.52 439.936 254.008L430.8 251.728C428.892 251.382 427.074 250.653 425.456 249.584C423.928 248.408 422.888 246.384 423.472 244.52" fill="#ED8B00"/>
<path d="M439.968 238.504C439.442 238.741 438.849 238.781 438.296 238.616C437.667 238.497 437.093 238.18 436.656 237.712C436.381 237.405 436.235 237.004 436.248 236.592C436.257 236.361 436.331 236.137 436.461 235.946C436.591 235.755 436.773 235.605 436.984 235.512L437.152 235.888C437.072 235.888 436.992 235.968 436.896 236C436.119 236.294 435.259 236.273 434.496 235.944C433.881 235.67 433.376 235.197 433.064 234.6C432.903 234.344 432.797 234.058 432.753 233.759C432.709 233.46 432.728 233.155 432.808 232.864C432.887 233.423 433.06 233.964 433.32 234.464C433.63 234.972 434.092 235.369 434.64 235.6C435.314 235.865 436.063 235.865 436.736 235.6L436.96 235.512L437.12 235.888C436.983 235.955 436.866 236.058 436.783 236.186C436.7 236.315 436.653 236.463 436.648 236.616C436.632 236.924 436.738 237.226 436.944 237.456C437.321 237.881 437.813 238.187 438.36 238.336C438.889 238.448 439.428 238.504 439.968 238.504V238.504Z" fill="#263238"/>
<path d="M446.888 238C446.888 238.048 446.624 238.232 446.088 238.352C445.393 238.505 444.668 238.455 444 238.208C443.331 237.956 442.755 237.503 442.352 236.912C442.056 236.456 442.008 236.112 442.048 236.112C442.088 236.112 442.264 236.376 442.592 236.744C443.013 237.228 443.546 237.602 444.144 237.832C445.037 238.078 445.972 238.136 446.888 238V238Z" fill="#263238"/>
<path d="M421.512 219.768C421.512 219.768 424.096 222.64 427.208 226.248C430.32 229.856 432.808 232.808 432.808 232.84C432.808 232.872 430.224 229.968 427.112 226.36C424 222.752 421.472 219.8 421.512 219.768Z" fill="#263238"/>
<path d="M425.08 215.448C425.08 215.448 426.904 219.032 429.08 223.504C431.256 227.976 432.944 231.624 432.904 231.64C432.864 231.656 431.08 228.056 428.904 223.576C426.728 219.096 425.04 215.464 425.08 215.448Z" fill="#263238"/>
<path d="M408.696 267.744C408.639 267.418 408.539 267.1 408.4 266.8C407.999 266.106 407.355 265.584 406.592 265.336C405.814 265.105 405 265.023 404.192 265.096C403.576 265.096 403.192 265.176 403.184 265.152C403.176 265.128 403.28 265.112 403.448 265.08C403.616 265.048 403.872 265.008 404.184 264.976C405.002 264.866 405.835 264.934 406.624 265.176C407.023 265.308 407.393 265.517 407.711 265.791C408.03 266.066 408.291 266.4 408.48 266.776C408.59 267.002 408.661 267.246 408.688 267.496C408.702 267.578 408.704 267.661 408.696 267.744V267.744Z" fill="#263238"/>
<path d="M409.048 264.936C409.048 264.936 408.928 264.592 408.616 264.136C408.212 263.514 407.612 263.043 406.911 262.799C406.211 262.554 405.448 262.549 404.744 262.784C404.208 262.96 403.944 263.184 403.896 263.16C403.955 263.095 404.022 263.038 404.096 262.992C404.286 262.862 404.49 262.754 404.704 262.672C405.437 262.411 406.236 262.411 406.968 262.672C407.699 262.932 408.316 263.438 408.713 264.104C408.834 264.302 408.93 264.515 409 264.736C409.027 264.8 409.043 264.867 409.048 264.936V264.936Z" fill="#263238"/>
<path d="M360.864 244.88C360.346 245.496 359.971 246.22 359.768 247C359.558 247.847 359.496 248.724 359.584 249.592C359.712 250.654 359.94 251.701 360.264 252.72C360.584 253.816 360.904 254.864 361.064 255.84C361.245 256.708 361.302 257.596 361.232 258.48C361.184 259.074 361.043 259.657 360.816 260.208C360.735 260.41 360.634 260.603 360.512 260.784C360.512 260.784 360.608 260.576 360.752 260.184C360.955 259.634 361.076 259.057 361.112 258.472C361.165 257.6 361.098 256.725 360.912 255.872C360.728 254.904 360.4 253.864 360.112 252.768C359.782 251.727 359.557 250.654 359.44 249.568C359.36 248.684 359.436 247.793 359.664 246.936C359.828 246.357 360.1 245.815 360.464 245.336C360.581 245.17 360.715 245.017 360.864 244.88V244.88Z" fill="#263238"/>
<path d="M411.792 243.904C411.799 243.962 411.799 244.022 411.792 244.08C411.792 244.232 411.752 244.392 411.728 244.56C411.653 245.149 411.613 245.742 411.608 246.336C411.6 247.22 411.664 248.103 411.8 248.976C411.971 250.038 412.239 251.083 412.6 252.096C412.989 253.101 413.472 254.068 414.04 254.984C414.513 255.729 415.048 256.433 415.64 257.088C416.034 257.533 416.456 257.953 416.904 258.344L417.272 258.664L417.392 258.792C416.725 258.324 416.109 257.788 415.552 257.192C414.944 256.544 414.395 255.842 413.912 255.096C413.331 254.171 412.838 253.193 412.44 252.176C412.075 251.153 411.807 250.098 411.64 249.024C411.508 248.142 411.457 247.251 411.488 246.36C411.498 245.533 411.6 244.709 411.792 243.904V243.904Z" fill="#263238"/>
<path d="M437.896 253.608C437.896 253.608 437.656 253.512 437.208 253.352C436.581 253.122 435.94 252.932 435.288 252.784C433.648 252.352 431.288 252.152 428.808 251.328C427.638 250.951 426.551 250.35 425.608 249.56C424.85 248.891 424.26 248.052 423.888 247.112C423.634 246.483 423.52 245.806 423.552 245.128C423.561 244.881 423.605 244.636 423.68 244.4C423.535 245.303 423.646 246.229 424 247.072C424.378 247.993 424.964 248.815 425.712 249.472C426.643 250.246 427.712 250.836 428.864 251.208C431.32 252.008 433.664 252.24 435.32 252.704C435.974 252.863 436.616 253.069 437.24 253.32C437.465 253.402 437.684 253.498 437.896 253.608V253.608Z" fill="#263238"/>
<path d="M446 263.152C446 263.152 445.816 262.856 445.48 262.424C444.599 261.28 443.364 260.459 441.968 260.088C441.44 259.944 441.096 259.904 441.096 259.88C441.096 259.856 441.184 259.88 441.344 259.88C441.565 259.897 441.784 259.929 442 259.976C442.716 260.137 443.396 260.427 444.008 260.832C444.632 261.237 445.175 261.755 445.608 262.36C445.735 262.54 445.847 262.73 445.944 262.928C445.952 263.064 446 263.144 446 263.152Z" fill="#263238"/>
<path d="M447.688 260.696C447.688 260.696 447.568 260.384 447.288 259.936C446.93 259.352 446.412 258.883 445.795 258.585C445.178 258.288 444.488 258.173 443.808 258.256C443.28 258.312 443.008 258.448 442.96 258.416C443.023 258.367 443.093 258.329 443.168 258.304C443.371 258.228 443.579 258.172 443.792 258.136C444.497 258.019 445.221 258.122 445.864 258.432C446.51 258.746 447.044 259.252 447.392 259.88C447.497 260.065 447.58 260.261 447.64 260.464C447.668 260.539 447.684 260.617 447.688 260.696Z" fill="#263238"/>
<path d="M445.377 249.144C444.915 249.048 444.447 248.989 443.977 248.968C442.833 248.946 441.713 249.288 440.777 249.944C440.257 250.282 439.815 250.726 439.481 251.248C439.225 251.683 439.066 252.169 439.016 252.672C438.993 253.142 439.015 253.614 439.081 254.08C438.917 253.627 438.854 253.144 438.896 252.664C438.932 252.139 439.088 251.63 439.353 251.176C439.69 250.628 440.143 250.161 440.681 249.808C441.638 249.135 442.791 248.797 443.961 248.848C444.31 248.864 444.656 248.92 444.992 249.016C445.126 249.039 445.256 249.082 445.377 249.144V249.144Z" fill="#263238"/>
<path d="M444.464 251.424C444.313 251.624 444.107 251.776 443.872 251.864C443.597 251.987 443.299 252.055 442.997 252.063C442.695 252.072 442.395 252.02 442.113 251.912C441.835 251.793 441.583 251.62 441.373 251.403C441.163 251.186 440.998 250.929 440.888 250.648C440.78 250.422 440.738 250.169 440.768 249.92C440.832 250.15 440.906 250.377 440.992 250.6C441.223 251.124 441.649 251.537 442.179 251.752C442.709 251.967 443.302 251.967 443.833 251.752C444.241 251.6 444.448 251.4 444.464 251.424Z" fill="#263238"/>
<path d="M443.88 253.392C443.672 253.571 443.426 253.699 443.16 253.768C442.527 253.97 441.849 253.984 441.208 253.808C440.571 253.626 439.999 253.265 439.56 252.768C439.373 252.567 439.229 252.33 439.136 252.072C439.136 252.072 439.312 252.336 439.648 252.688C440.091 253.139 440.642 253.469 441.248 253.648C441.861 253.813 442.507 253.813 443.12 253.648C443.6 253.528 443.864 253.368 443.88 253.392Z" fill="#263238"/>
<path d="M447.208 258.672C446.943 258.191 446.609 257.752 446.216 257.368C445.2 256.522 444.04 255.863 442.792 255.424C441.344 254.856 440 254.408 439.04 254.064L437.904 253.656C437.761 253.612 437.622 253.556 437.488 253.488C437.635 253.508 437.78 253.543 437.92 253.592L439.08 253.952C440.048 254.264 441.392 254.704 442.848 255.272C444.121 255.711 445.295 256.396 446.304 257.288C446.596 257.574 446.842 257.903 447.032 258.264C447.107 258.393 447.166 258.53 447.208 258.672V258.672Z" fill="#263238"/>
<path d="M435.776 246.568C434.962 246.168 434.192 245.683 433.48 245.12C431.631 243.698 430.107 241.898 429.008 239.84L429.16 239.784C429.498 241.069 430.103 242.269 430.936 243.304L431.216 243.64L430.832 243.424L430.376 243.16C427.446 241.454 425.146 238.847 423.816 235.728C423.412 234.794 423.106 233.821 422.904 232.824C422.776 232.112 422.744 231.72 422.744 231.72C422.744 231.72 422.744 231.816 422.808 232C422.872 232.184 422.88 232.464 422.968 232.8C423.195 233.785 423.514 234.747 423.92 235.672C425.269 238.746 427.557 241.314 430.456 243.008L430.912 243.272L430.808 243.4C429.961 242.347 429.347 241.125 429.008 239.816L428.832 239.16L429.152 239.76C430.234 241.801 431.727 243.596 433.536 245.032C434.05 245.443 434.584 245.827 435.136 246.184L435.592 246.456L435.776 246.568Z" fill="#263238"/>
<path d="M394.976 240.512C394.869 240.492 394.764 240.46 394.664 240.416C394.464 240.344 394.184 240.224 393.864 240.064C392.972 239.643 392.127 239.128 391.344 238.528C390.561 237.93 389.842 237.252 389.2 236.504C389.004 236.279 388.819 236.044 388.648 235.8C388.52 235.632 388.456 235.536 388.472 235.528C388.488 235.52 388.776 235.88 389.272 236.424C389.933 237.144 390.656 237.806 391.432 238.4C392.208 238.988 393.032 239.51 393.896 239.96C394.56 240.304 394.984 240.488 394.976 240.512Z" fill="#263238"/>
<path d="M394.976 239.424C394.299 238.964 393.657 238.453 393.056 237.896C392.415 237.385 391.808 236.832 391.24 236.24C391.915 236.704 392.557 237.214 393.16 237.768C393.799 238.282 394.406 238.835 394.976 239.424V239.424Z" fill="#263238"/>
<path d="M396.513 239.008C396.024 238.82 395.572 238.55 395.176 238.208C394.752 237.895 394.389 237.508 394.104 237.064C394.104 237.064 394.616 237.536 395.288 238.08C395.96 238.624 396.537 238.968 396.513 239.008Z" fill="#263238"/>
<g opacity="0.3">
<path d="M395.976 222.8C398.376 222.752 396.712 226.8 395.696 228.704C395.183 229.65 394.46 230.465 393.582 231.086C392.704 231.708 391.694 232.119 390.632 232.288C388.568 232.592 386.44 231.952 384.384 232.328C380.112 233.128 377.728 237.872 373.76 239.64C372.393 240.227 370.895 240.444 369.418 240.268C367.941 240.092 366.536 239.531 365.344 238.64C362.992 236.84 362.4 232.048 362.856 229.128C362.856 229.2 370.856 223.336 395.976 222.8Z" fill="white"/>
</g>
<g opacity="0.3">
<path d="M412.184 248.456C413.208 247.656 414.824 247.848 416.128 248.08C417.421 248.363 418.635 248.932 419.68 249.744C420.229 250.077 420.706 250.516 421.084 251.035C421.461 251.554 421.732 252.143 421.88 252.768C422.072 254.24 421.08 255.592 420.184 256.768C419.833 257.263 419.41 257.702 418.928 258.072C418.686 258.257 418.408 258.389 418.112 258.459C417.815 258.53 417.508 258.537 417.208 258.48C416.581 258.251 416.046 257.82 415.688 257.256C414.454 255.667 413.402 253.944 412.552 252.12C412.008 250.968 411.568 249.576 412.184 248.464" fill="white"/>
</g>
<path d="M394.8 262.08C394.8 262.08 394.8 261.976 394.84 261.784C394.88 261.592 394.936 261.32 394.976 260.984C395.13 259.954 395.168 258.91 395.088 257.872C394.953 256.338 394.556 254.839 393.912 253.44C393.13 251.721 392.133 250.108 390.944 248.64C389.662 247.255 388.114 246.142 386.392 245.368C384.99 244.725 383.534 244.209 382.04 243.824C380.76 243.488 379.712 243.288 378.984 243.152L378.184 243.008C378.084 242.993 377.985 242.971 377.888 242.944C379.309 243.106 380.715 243.374 382.096 243.744C383.602 244.12 385.072 244.629 386.488 245.264C388.232 246.042 389.799 247.166 391.096 248.568C392.298 250.046 393.303 251.673 394.088 253.408C394.726 254.827 395.116 256.345 395.24 257.896C395.307 258.942 395.25 259.991 395.072 261.024C394.912 261.688 394.8 262.08 394.8 262.08Z" fill="#263238"/>
<path d="M435.528 229.472C435.528 229.52 435.16 229.6 434.568 229.472C433.791 229.331 433.073 228.964 432.504 228.416C431.941 227.868 431.549 227.167 431.376 226.4C431.256 225.816 431.312 225.44 431.376 225.44C431.44 225.44 431.48 225.792 431.664 226.32C431.903 226.997 432.292 227.613 432.8 228.12C433.322 228.617 433.952 228.986 434.64 229.2C435.168 229.376 435.528 229.408 435.528 229.472Z" fill="#263238"/>
<path d="M438.376 237.416C438.264 237.416 438.152 237.312 438.128 237.152C438.107 237.088 438.111 237.019 438.139 236.958C438.167 236.897 438.218 236.849 438.28 236.824C438.4 236.824 438.512 236.92 438.536 237.088C438.56 237.256 438.496 237.392 438.376 237.416Z" fill="#263238"/>
<path d="M439.552 237.048C439.494 237.076 439.427 237.08 439.365 237.059C439.304 237.038 439.253 236.994 439.224 236.936C439.181 236.889 439.158 236.828 439.158 236.764C439.158 236.7 439.181 236.639 439.224 236.592C439.283 236.564 439.35 236.56 439.411 236.581C439.472 236.602 439.523 236.646 439.552 236.704C439.597 236.75 439.621 236.812 439.621 236.876C439.621 236.94 439.597 237.002 439.552 237.048V237.048Z" fill="#263238"/>
<path d="M439.536 237.872C439.518 237.891 439.497 237.906 439.473 237.917C439.449 237.927 439.423 237.933 439.396 237.933C439.37 237.933 439.344 237.927 439.32 237.917C439.296 237.906 439.274 237.891 439.256 237.872C439.22 237.835 439.199 237.784 439.199 237.732C439.199 237.68 439.22 237.629 439.256 237.592C439.294 237.555 439.344 237.535 439.396 237.535C439.449 237.535 439.499 237.555 439.536 237.592C439.556 237.61 439.571 237.632 439.581 237.656C439.592 237.68 439.597 237.706 439.597 237.732C439.597 237.758 439.592 237.784 439.581 237.808C439.571 237.832 439.556 237.854 439.536 237.872Z" fill="#263238"/>
<path d="M434.568 234.232C434.504 234.328 434.328 234.32 434.168 234.232C434.008 234.144 433.936 233.96 434 233.864C434.064 233.768 434.248 233.784 434.4 233.864C434.552 233.944 434.632 234.136 434.568 234.232Z" fill="#263238"/>
<path d="M435.088 233.048C434.976 233.048 434.872 232.944 434.864 232.8C434.857 232.769 434.857 232.737 434.862 232.706C434.867 232.674 434.879 232.644 434.896 232.618C434.913 232.591 434.936 232.568 434.962 232.549C434.988 232.531 435.017 232.519 435.048 232.512C435.168 232.512 435.264 232.616 435.28 232.768C435.29 232.83 435.275 232.894 435.24 232.946C435.204 232.998 435.15 233.035 435.088 233.048V233.048Z" fill="#263238"/>
<path d="M435.32 234.608C435.2 234.608 435.12 234.52 435.128 234.44C435.136 234.36 435.24 234.32 435.352 234.336C435.464 234.352 435.552 234.424 435.544 234.496C435.536 234.568 435.432 234.616 435.32 234.608Z" fill="#263238"/>
<path d="M456.024 248.776C456.024 248.776 452.624 246.64 448.488 243.92C444.352 241.2 441.024 238.952 441.048 238.912C441.072 238.872 444.448 241.056 448.584 243.776C452.72 246.496 456.048 248.744 456.024 248.776Z" fill="#263238"/>
<path d="M461.2 245.816H460.992C460.856 245.816 460.656 245.76 460.408 245.704C459.904 245.608 459.176 245.432 458.288 245.176C456.001 244.461 453.753 243.628 451.552 242.68L444.904 239.944L442.896 239.096L442.352 238.856L442.168 238.768C442.238 238.779 442.305 238.801 442.368 238.832L442.92 239.04L444.952 239.84L451.616 242.536C454.208 243.6 456.568 244.536 458.328 245.072C459.2 245.344 459.928 245.536 460.424 245.648L461 245.792L461.2 245.816Z" fill="#263238"/>
<g opacity="0.3">
<path d="M434 218.32C435.012 218.184 435.958 217.743 436.712 217.056C437.391 216.355 437.843 215.466 438.008 214.504C438.175 213.551 438.242 212.583 438.208 211.616L435.488 214.2C434.904 214.752 434.328 215.304 433.8 215.896C433.514 216.195 433.291 216.549 433.144 216.936C433.074 217.129 433.057 217.338 433.093 217.54C433.13 217.742 433.219 217.931 433.352 218.088C433.422 218.162 433.507 218.22 433.6 218.26C433.694 218.3 433.794 218.321 433.896 218.321C433.998 218.321 434.098 218.3 434.192 218.26C434.285 218.22 434.37 218.162 434.44 218.088" fill="black"/>
</g>
<g opacity="0.3">
<path d="M451.856 234.584C451.901 232.901 452.589 231.299 453.78 230.108C454.971 228.917 456.573 228.229 458.256 228.184C456.952 230.888 453.696 232.048 451.856 234.416" fill="black"/>
</g>
<path d="M387.32 143.704L386.288 144.24C385.717 157.664 385.146 171.085 384.576 184.504C384.264 191.904 383.976 199.448 386.728 206.704L431.024 218.504C432.787 215.499 433.853 212.136 434.144 208.664C435.567 193.803 436.015 178.864 435.488 163.944C435.36 159.272 435.776 148.44 431.488 145.544C424.232 140.672 417.52 142.344 410.184 140.696C402.848 139.048 395.312 143.008 387.784 142.928" fill="#263238"/>
<path d="M366 191.048L352.944 170.376C352.4 170.376 314.432 177.992 314.432 177.992C314.432 177.992 287.984 180.28 287.336 180.712C286.688 181.144 278.632 196.056 278.632 196.056C283.96 196.928 286.136 190.072 286.136 190.072L291.472 187.024L298 187.824C296.136 188.672 294.56 189.52 294.08 190.112C292.664 191.848 291.904 195.224 292.776 195.336C293.648 195.448 295.232 192.936 299.336 192.392C303.44 191.848 313.848 189.672 313.848 189.672L317.584 190.112L366 191.048Z" fill="#B78876"/>
<path d="M304.52 185.12C303.314 185.717 302.078 186.251 300.816 186.72C299.61 187.323 298.37 187.857 297.104 188.32C298.183 187.493 299.381 186.832 300.656 186.36C301.873 185.751 303.176 185.333 304.52 185.12V185.12Z" fill="#A36957"/>
<path d="M333.312 65.36C334.592 80.04 335.712 95.672 328.776 108.68C330.324 108.359 331.693 107.465 332.608 106.176C332.04 111.048 331.472 115.984 332.272 120.816C333.072 125.648 335.472 130.416 339.576 133.064C339.632 132.456 339.696 131.848 339.752 131.248C341.352 141.6 350.456 150.32 360.872 151.456C365.368 151.952 370.536 150.792 372.92 146.952C374.736 144.024 374.52 140.32 374.216 136.896L368.616 70.024C368.096 63.8 367.456 57.264 363.896 52.144C361.878 49.2223 359.034 46.9686 355.729 45.6711C352.423 44.3735 348.806 44.091 345.339 44.8596C341.872 45.6282 338.713 47.413 336.266 49.9859C333.819 52.5589 332.194 55.8031 331.6 59.304" fill="#263238"/>
<path d="M363.256 108.344C363.256 108.344 352.432 114.616 349.128 119.816C345.824 125.016 347.056 139.6 347.056 139.6C345.704 144.691 344.942 149.92 344.784 155.184C344.784 163.608 351.304 169.784 352.968 174.304C354.632 178.824 353.488 199.472 353.488 199.472L415.088 200.976V158.528L423.28 159.272C423.28 159.272 425.944 117.832 413.56 112.592C401.176 107.352 386.28 102.152 386.28 102.152L363.256 108.344Z" fill="#0033A0"/>
<path d="M423.6 147.112C423.464 147.359 423.3 147.59 423.112 147.8C422.584 148.417 421.947 148.929 421.232 149.312C420.099 149.92 418.85 150.28 417.568 150.368C415.868 150.47 414.166 150.22 412.568 149.632C410.65 148.918 408.8 148.035 407.04 146.992C405.048 145.794 402.945 144.792 400.76 144C398.319 143.224 395.712 143.136 393.224 143.744C390.562 144.471 387.975 145.446 385.496 146.656C382.991 147.882 380.37 148.855 377.672 149.56C375.109 150.167 372.427 150.037 369.936 149.184C367.741 148.338 365.653 147.24 363.712 145.912C362.034 144.767 360.287 143.727 358.48 142.8C356.975 142.052 355.35 141.575 353.68 141.392C352.429 141.259 351.165 141.359 349.952 141.688C348.915 141.986 347.946 142.481 347.096 143.144C347.289 142.939 347.504 142.754 347.736 142.592C348.395 142.123 349.128 141.766 349.904 141.536C351.134 141.168 352.425 141.04 353.704 141.16C355.393 141.331 357.039 141.796 358.568 142.536C360.401 143.437 362.173 144.458 363.872 145.592C365.801 146.887 367.87 147.961 370.04 148.792C371.841 149.395 373.748 149.616 375.64 149.44C376.288 149.368 376.936 149.256 377.584 149.128C380.254 148.422 382.847 147.455 385.328 146.24C387.832 145.021 390.446 144.043 393.136 143.32C395.691 142.695 398.369 142.792 400.872 143.6C403.079 144.407 405.202 145.431 407.208 146.656C408.946 147.7 410.771 148.591 412.664 149.32C414.222 149.914 415.885 150.187 417.552 150.12C418.819 150.071 420.061 149.758 421.2 149.2C421.909 148.842 422.548 148.359 423.088 147.776C423.44 147.344 423.6 147.096 423.6 147.112Z" fill="#FAFAFA"/>
<path d="M421.632 131.672C421.587 131.726 421.536 131.775 421.48 131.816C421.376 131.896 421.232 132.032 421.008 132.184C420.368 132.617 419.663 132.944 418.92 133.152C416.992 133.744 413.92 133.648 410.6 132.24C408.944 131.544 407.232 130.584 405.376 129.624C403.444 128.539 401.355 127.759 399.184 127.312C396.767 126.927 394.299 126.99 391.904 127.496C389.319 128.028 386.783 128.772 384.32 129.72C381.768 130.656 379.288 131.616 376.808 132.336C374.433 133.074 371.967 133.478 369.48 133.536C365.259 133.478 361.112 132.414 357.384 130.432C354.86 129.145 352.451 127.643 350.184 125.944C349.384 125.336 348.776 124.864 348.368 124.528L347.912 124.152C347.808 124.064 347.752 124.016 347.76 124.008C347.768 124 347.824 124.008 347.936 124.12L348.416 124.464L350.28 125.808C352.562 127.448 354.97 128.905 357.48 130.168C361.178 132.086 365.275 133.108 369.44 133.152C371.884 133.079 374.306 132.672 376.64 131.944C379.088 131.232 381.568 130.264 384.12 129.328C386.604 128.375 389.162 127.628 391.768 127.096C394.212 126.585 396.729 126.531 399.192 126.936C401.4 127.405 403.521 128.214 405.48 129.336C407.336 130.312 409.032 131.28 410.664 131.984C413.912 133.408 416.92 133.544 418.816 133.016C419.832 132.752 420.788 132.296 421.632 131.672V131.672Z" fill="#FAFAFA"/>
<path d="M394 171.784C393.862 171.87 393.718 171.945 393.568 172.008C393.288 172.136 392.864 172.328 392.312 172.56C390.76 173.228 389.154 173.763 387.512 174.16C385.05 174.821 382.448 174.74 380.032 173.928C377.312 172.984 374.8 171.048 372.096 169.28C369.587 167.559 366.73 166.409 363.728 165.912C362.418 165.717 361.093 165.636 359.768 165.672C358.616 165.712 357.468 165.843 356.336 166.064C354.691 166.385 353.092 166.909 351.576 167.624C350.496 168.12 349.936 168.472 349.912 168.424C350.029 168.313 350.161 168.219 350.304 168.144C350.691 167.895 351.092 167.668 351.504 167.464C353.017 166.676 354.633 166.103 356.304 165.76C357.453 165.516 358.619 165.363 359.792 165.304C361.129 165.261 362.467 165.334 363.792 165.52C366.856 166.003 369.775 167.162 372.336 168.912C375.056 170.704 377.528 172.616 380.168 173.552C382.517 174.353 385.048 174.459 387.456 173.856C389.09 173.473 390.694 172.973 392.256 172.36L393.536 171.88C393.685 171.826 393.842 171.794 394 171.784Z" fill="#FAFAFA"/>
<path d="M393.864 186.944C393.864 186.984 393.296 186.832 392.264 186.68C390.806 186.481 389.33 186.444 387.864 186.568C385.698 186.772 383.556 187.173 381.464 187.768C379.064 188.416 376.504 189.288 373.736 190.048C371.136 190.811 368.445 191.222 365.736 191.272C363.511 191.273 361.309 190.833 359.256 189.976C357.876 189.395 356.621 188.553 355.56 187.496C355.272 187.206 355.005 186.896 354.76 186.568C354.671 186.459 354.593 186.341 354.528 186.216C354.568 186.216 354.904 186.664 355.656 187.376C356.737 188.374 357.992 189.163 359.36 189.704C361.384 190.504 363.543 190.906 365.72 190.888C368.392 190.815 371.044 190.395 373.608 189.64C376.36 188.896 378.944 188.04 381.352 187.4C383.478 186.815 385.657 186.438 387.856 186.272C389.343 186.176 390.837 186.259 392.304 186.52C392.701 186.593 393.094 186.69 393.48 186.808C393.614 186.833 393.744 186.879 393.864 186.944V186.944Z" fill="#FAFAFA"/>
<path d="M393.784 168.136C393.672 168.136 393.576 162.336 393.576 155.184C393.576 148.032 393.672 142.232 393.784 142.232C393.896 142.232 394 148.032 394 155.184C394 162.336 393.904 168.136 393.784 168.136Z" fill="#263238"/>
<path d="M387.968 175.976C387.862 176.012 387.751 176.028 387.64 176.024C387.416 176.024 387.096 176.072 386.672 176.064C385.487 176.072 384.305 175.956 383.144 175.72C379.256 174.99 375.687 173.082 372.92 170.256C370.152 167.43 368.32 163.822 367.672 159.92C367.461 158.754 367.369 157.569 367.4 156.384C367.4 155.96 367.448 155.64 367.464 155.424C367.463 155.31 367.482 155.196 367.52 155.088C367.537 156.697 367.684 158.302 367.96 159.888C368.678 163.698 370.509 167.21 373.221 169.981C375.933 172.752 379.406 174.657 383.2 175.456C384.773 175.757 386.367 175.931 387.968 175.976V175.976Z" fill="#263238"/>
<g opacity="0.3">
<path d="M355.448 195.648C364.4 190.32 376.4 191.224 384.456 184.624C388.256 181.512 390.72 177.032 392.2 172.352C393.68 167.672 394.232 162.752 394.784 157.896L396.32 185.032C396.424 186.88 396.464 188.936 395.256 190.352C394.24 191.544 392.592 191.952 391.064 192.288L371.432 196.656C366.12 197.832 360.448 198.992 355.368 197.04" fill="black"/>
</g>
<g opacity="0.2">
<path d="M381.056 128.208C379.368 130.288 377.656 132.416 376.736 134.936C375.816 137.456 375.824 140.464 377.432 142.608C379.184 144.944 382.48 145.712 385.344 145.144C388.208 144.576 390.72 142.88 392.992 141.056C394.128 140.144 395.392 139.144 396.824 139.176C397.674 139.297 398.514 139.484 399.336 139.736C401.696 140.152 404.032 138.616 405.376 136.64C406.72 134.664 407.32 132.296 408.08 130.024C408.84 127.752 409.88 125.456 411.8 124.024C413.584 122.696 416.072 122.16 417.176 120.232C418.568 117.832 416.752 114.584 414.2 113.456C411.648 112.328 408.728 112.712 405.976 113.104" fill="black"/>
</g>
<g opacity="0.2">
<path d="M385.312 175.664C385.464 175.896 385.272 176.376 384.632 176.936C383.691 177.691 382.568 178.184 381.376 178.368C379.594 178.669 377.765 178.506 376.064 177.896C374.012 177.137 372.175 175.891 370.712 174.264C369.312 172.719 368.188 170.943 367.392 169.016C366.77 167.53 366.303 165.983 366 164.4C365.528 161.72 365.624 160.032 366.16 159.872C366.696 159.712 367.648 161.152 368.8 163.464C369.952 165.776 371.4 168.896 373.768 171.464C374.83 172.65 376.099 173.634 377.512 174.368C378.671 174.943 379.922 175.311 381.208 175.456C383.456 175.688 384.976 175.152 385.312 175.664Z" fill="black"/>
</g>
<path d="M423.312 159.272C423.312 159.384 416.68 158.88 408.528 158.136C400.376 157.392 393.776 156.704 393.784 156.584C393.792 156.464 400.416 156.976 408.568 157.72C416.72 158.464 423.32 159.152 423.312 159.272Z" fill="#263238"/>
<path d="M374.416 43.3761C378.056 46.5761 380.872 49.0881 384.728 51.5201C388.584 53.9521 392.576 56.8561 394.008 61.1921C395.048 64.3361 394.664 68.0721 396.752 70.6481C398.536 72.8481 401.552 73.4961 404.056 74.8241C406.247 76.0302 408.075 77.8006 409.351 79.9514C410.626 82.1023 411.304 84.5553 411.312 87.0561C411.312 90.2561 410.2 93.6481 411.704 96.4561C413.016 98.9041 415.952 100.104 417.408 102.472C418.864 104.84 418.592 107.592 418.136 110.2C417.44 114.2 415.96 118.504 412.392 120.424C411.149 121.023 409.794 121.353 408.415 121.39C407.036 121.427 405.665 121.171 404.392 120.64C401.854 119.564 399.577 117.957 397.712 115.928C393.998 112.144 391.101 107.638 389.2 102.688C386.928 96.7841 386.152 90.4241 385.056 84.1921C383.039 72.7622 379.918 61.555 375.736 50.7281C374.712 48.0881 372.888 45.7521 374.432 43.3761" fill="#263238"/>
<path d="M404.552 93.464C404.552 93.464 404.768 93.32 405.184 93.056C405.787 92.6712 406.369 92.2546 406.928 91.808C407.807 91.1094 408.594 90.3031 409.272 89.408C410.168 88.2205 410.749 86.825 410.96 85.352C411.178 83.5647 410.725 81.76 409.688 80.288C409.117 79.4787 408.33 78.8465 407.416 78.464C406.414 78.1218 405.363 77.9461 404.304 77.944C403.135 77.9471 401.984 77.6526 400.96 77.088C399.933 76.3943 399.194 75.3507 398.88 74.152C398.535 72.947 398.423 71.687 398.552 70.44C398.672 69.184 398.92 67.944 399.096 66.688C399.292 65.4638 399.292 64.2162 399.096 62.992C398.852 61.8195 398.361 60.7124 397.656 59.744C396.27 57.9168 394.483 56.4332 392.432 55.408C390.504 54.36 388.56 53.544 386.832 52.616C382.855 50.5466 379.172 47.9557 375.88 44.912C375.192 44.28 374.68 43.76 374.344 43.408L373.96 43C373.872 42.904 373.832 42.856 373.84 42.848L373.984 42.968L374.4 43.352C374.76 43.688 375.288 44.152 376 44.792C377.971 46.5462 380.07 48.1507 382.28 49.592C383.802 50.5888 385.378 51.5022 387 52.328C388.736 53.232 390.68 54.032 392.64 55.088C394.746 56.1369 396.585 57.6528 398.016 59.52C398.756 60.5361 399.271 61.6978 399.528 62.928C399.736 64.1969 399.736 65.4912 399.528 66.76C399.36 68.032 399.104 69.264 398.992 70.488C398.866 71.6832 398.969 72.8915 399.296 74.048C399.579 75.156 400.256 76.1229 401.2 76.768C402.169 77.2973 403.256 77.5725 404.36 77.568C405.45 77.5812 406.531 77.773 407.56 78.136C408.527 78.5484 409.359 79.2249 409.96 80.088C411.032 81.6383 411.491 83.531 411.248 85.4C411.008 86.9163 410.389 88.3473 409.448 89.56C408.757 90.4623 407.95 91.2693 407.048 91.96C406.479 92.4028 405.877 92.8013 405.248 93.152C405.032 93.28 404.864 93.36 404.752 93.416C404.689 93.4448 404.621 93.4611 404.552 93.464Z" fill="#263238"/>
<path d="M328.168 87.8801L342.072 79.4721C342.346 79.3071 342.674 79.2574 342.984 79.3339C343.295 79.4104 343.562 79.6068 343.728 79.8801V79.8801C343.893 80.1539 343.943 80.482 343.866 80.7924C343.79 81.1028 343.593 81.3702 343.32 81.5361L329.416 89.9441L328.168 87.8801Z" fill="#FFE946"/>
<g opacity="0.4">
<path d="M343.32 81.5361L342.072 79.4721C342.346 79.3071 342.674 79.2574 342.984 79.3339C343.294 79.4104 343.562 79.6068 343.728 79.8801V79.8801C343.893 80.1539 343.942 80.482 343.866 80.7924C343.789 81.1028 343.593 81.3702 343.32 81.5361V81.5361Z" fill="black"/>
</g>
<g opacity="0.4">
<path d="M329.03 89.2646L342.92 80.8657L342.573 80.2907L328.683 88.6896L329.03 89.2646Z" fill="black"/>
</g>
<path d="M329.416 89.9441L325.872 90.6801L328.168 87.8801L329.416 89.9441Z" fill="#FFCD00"/>
<path d="M327.024 90.4401L326.624 89.7681L325.872 90.6801L327.024 90.4401Z" fill="#263238"/>
<path d="M350.16 48.4001C345.36 49.9769 341.353 53.342 338.969 57.7963C336.585 62.2507 336.009 67.452 337.36 72.32C339.536 80.16 342.032 88.6401 343.936 93.5521C348.376 104.976 357.768 104.52 357.768 104.52C357.768 104.52 359.528 111.896 361.072 118.92C362.536 125.624 369.568 129.912 376.784 128.52C383.92 127.136 388.576 120.68 387.224 114.016L375.448 62.6561C374.835 59.9939 373.674 57.4889 372.038 55.3008C370.403 53.1127 368.329 51.2897 365.95 49.9482C363.57 48.6067 360.937 47.7761 358.218 47.5095C355.499 47.243 352.755 47.5463 350.16 48.4001V48.4001Z" fill="#B78876"/>
<path d="M341.92 76.2561C342.012 76.648 342.248 76.9909 342.582 77.2163C342.916 77.4417 343.322 77.533 343.72 77.472C343.915 77.4447 344.104 77.3787 344.273 77.2779C344.443 77.1771 344.591 77.0435 344.709 76.8849C344.827 76.7263 344.911 76.5459 344.959 76.3541C345.006 76.1624 345.014 75.9631 344.984 75.7681C344.903 75.3718 344.67 75.023 344.335 74.7958C344 74.5687 343.59 74.4812 343.192 74.552C342.995 74.5774 342.805 74.642 342.634 74.7421C342.463 74.8422 342.314 74.9756 342.195 75.1346C342.076 75.2935 341.991 75.4747 341.943 75.6674C341.896 75.86 341.888 76.0602 341.92 76.2561V76.2561Z" fill="#263238"/>
<path d="M340.88 74.4081C341.112 74.5681 342.08 73.4721 343.712 73.1201C345.344 72.7681 346.72 73.3281 346.848 73.1201C346.92 73.0161 346.648 72.7041 346.048 72.4321C345.235 72.0958 344.338 72.0176 343.48 72.2081C342.63 72.3934 341.861 72.8412 341.28 73.4881C340.864 73.9441 340.768 74.3441 340.88 74.4081Z" fill="#263238"/>
<path d="M358.64 73.272C358.721 73.6683 358.954 74.0171 359.289 74.2442C359.623 74.4714 360.033 74.5588 360.432 74.488C360.628 74.4627 360.818 74.3981 360.989 74.298C361.161 74.1979 361.31 74.0644 361.429 73.9055C361.547 73.7465 361.633 73.5653 361.68 73.3727C361.727 73.18 361.735 72.9798 361.704 72.784C361.612 72.392 361.375 72.0491 361.042 71.8237C360.708 71.5984 360.302 71.507 359.904 71.568C359.708 71.5943 359.519 71.6597 359.349 71.7602C359.178 71.8607 359.03 71.9943 358.912 72.1531C358.794 72.312 358.709 72.4928 358.663 72.685C358.616 72.8772 358.608 73.0768 358.64 73.272V73.272Z" fill="#263238"/>
<path d="M358.048 71.32C358.28 71.48 359.248 70.376 360.88 70.032C362.512 69.688 363.888 70.24 364.016 70.032C364.088 69.928 363.816 69.608 363.216 69.344C362.404 69.0041 361.506 68.9258 360.648 69.12C359.798 69.2995 359.027 69.7451 358.448 70.392C358 70.856 357.936 71.256 358.048 71.32Z" fill="#263238"/>
<path d="M354.736 84.712C353.818 84.6292 352.894 84.6614 351.984 84.808C351.56 84.856 351.144 84.856 351.008 84.584C350.879 84.1617 350.879 83.7104 351.008 83.288C351.184 82.2 351.36 81.048 351.552 79.848C352.288 74.96 352.728 70.976 352.528 70.944C352.328 70.912 351.576 74.856 350.84 79.744C350.672 80.944 350.504 82.0961 350.352 83.1921C350.193 83.7501 350.241 84.3469 350.488 84.872C350.578 85.0042 350.697 85.1145 350.835 85.1947C350.974 85.275 351.128 85.3233 351.288 85.336C351.532 85.3485 351.777 85.3297 352.016 85.2801C352.944 85.2115 353.858 85.0205 354.736 84.712Z" fill="#263238"/>
<path d="M357.784 104.28C363.375 103.16 368.546 100.509 372.72 96.624C372.72 96.624 370.632 105.584 358.552 107.024L357.784 104.28Z" fill="#A36957"/>
<path d="M362.104 65.3761C361.984 65.7121 360.688 65.5521 359.136 65.6401C357.584 65.7281 356.304 66.0001 356.16 65.6401C356.016 65.2801 357.248 64.4481 359.072 64.3601C360.896 64.2721 362.224 65.0641 362.104 65.3761Z" fill="#263238"/>
<path d="M345.384 66.92C345.384 67.272 344.064 67.592 342.496 68.064C340.928 68.536 339.624 68.96 339.44 68.656C339.256 68.352 340.392 67.368 342.144 66.864C343.896 66.36 345.384 66.584 345.384 66.92Z" fill="#263238"/>
<path d="M406.44 109.672C406.44 109.672 400.04 102.616 400.528 94.52C401.016 86.424 398.52 81.176 393.992 79.32C390.792 78.016 389.552 74.744 389.064 72.016C388.301 67.4346 386.957 62.9692 385.064 58.728C382.248 52.648 378.496 46.384 373.272 42.448C366.48 37.328 355.816 33.904 349.272 39.312C346.224 41.824 344.432 42.224 341.712 46.512C341.712 46.512 338.44 47.656 336.752 48.424C330.944 51.064 328.816 58.648 329.432 63.624C330.856 75.072 337.792 76.52 340.504 83.824C340.504 83.824 337.248 67.928 337.504 63.552C337.814 60.32 339.253 57.3005 341.568 55.024C346.176 54.224 348.616 56.376 351.264 60.24C353.912 64.104 355.64 67.264 359.984 69.04C364.072 70.704 367.712 74.4001 373.248 70.4801C375.015 72.4617 376.164 74.9173 376.552 77.544C376.944 81.544 373.032 83.744 375.904 89.88C378.776 96.016 384.144 100.176 384.704 102.616" fill="#263238"/>
<path d="M357.744 88.008C357.938 87.6313 358.225 87.3102 358.578 87.075C358.931 86.8399 359.337 86.6984 359.76 86.664C360.064 86.6314 360.372 86.6607 360.665 86.7501C360.958 86.8394 361.229 86.987 361.464 87.184C361.693 87.373 361.857 87.6286 361.935 87.9152C362.012 88.2019 361.999 88.5055 361.896 88.784C361.724 89.0687 361.473 89.2965 361.173 89.4388C360.872 89.5811 360.537 89.6316 360.208 89.584C359.52 89.4827 358.859 89.2461 358.264 88.888C358.087 88.8126 357.927 88.704 357.792 88.568C357.727 88.5015 357.684 88.4175 357.667 88.3265C357.65 88.2354 357.66 88.1414 357.696 88.056" fill="#F57EB6"/>
<path d="M360.704 84.9921C360.48 84.9921 360.768 86.4961 359.72 87.8001C358.672 89.1041 357.056 89.2481 357.088 89.4561C357.12 89.6641 357.496 89.6721 358.168 89.5601C359.035 89.4015 359.818 88.9392 360.376 88.2561C360.913 87.6017 361.174 86.7638 361.104 85.9201C361.04 85.2961 360.8 84.9601 360.704 84.9921Z" fill="#263238"/>
<path d="M375.864 89.4641C377.425 91.0455 378.542 93.0097 379.104 95.1596C379.666 97.3095 379.652 99.5693 379.064 101.712C378.264 104.52 376.464 107.016 376.056 109.904C375.552 113.424 377.176 116.848 378.528 120.136C379.88 123.424 381.016 127.192 379.576 130.44C378.984 131.8 377.976 132.952 377.36 134.304C376.744 135.656 376.616 137.424 377.648 138.488C378.445 139.161 379.453 139.532 380.496 139.536C384.355 139.806 388.207 138.913 391.554 136.972C394.901 135.031 397.589 132.132 399.272 128.648L400.872 132.128C404.355 126.869 405.934 120.577 405.344 114.296C404.755 108.016 402.033 102.127 397.632 97.6081" fill="#263238"/>
<path d="M371.136 72.896C370.96 72.096 372.568 70.136 373.344 69.928C375.136 69.464 378.256 69.504 379.68 74.424C381.72 81.456 374.456 81.256 374.384 81.056C374.312 80.856 371.752 75.664 371.136 72.896Z" fill="#B78876"/>
<path d="M375.312 77.8961C375.312 77.8961 375.456 77.9521 375.696 77.9841C376.023 78.0237 376.353 77.9348 376.616 77.7361C377.28 77.2481 377.56 75.8881 377.232 74.6161C377.083 74.0081 376.799 73.4419 376.4 72.9601C376.271 72.7584 376.095 72.5911 375.888 72.4727C375.68 72.3542 375.447 72.2881 375.208 72.2801C375.057 72.2867 374.914 72.3441 374.801 72.4429C374.687 72.5418 374.611 72.6761 374.584 72.8241C374.544 73.0561 374.632 73.1761 374.584 73.2001C374.536 73.2241 374.4 73.1281 374.368 72.8241C374.356 72.6383 374.41 72.4545 374.52 72.3041C374.67 72.101 374.894 71.9657 375.144 71.9281C375.45 71.9008 375.758 71.9528 376.038 72.0789C376.318 72.2049 376.561 72.401 376.744 72.6481C377.218 73.1682 377.556 73.7976 377.728 74.4801C378.096 75.9121 377.728 77.4481 376.824 78.0401C376.65 78.1494 376.455 78.2183 376.251 78.2419C376.048 78.2654 375.841 78.2429 375.648 78.1761C375.376 78.0641 375.288 77.9201 375.312 77.8961Z" fill="#A36957"/>
<path d="M408.976 93.0081C408.888 93.0081 408.976 92.6721 408.976 92.1041C409.002 91.2811 408.849 90.4623 408.528 89.7041C408.021 88.5259 407.226 87.4942 406.216 86.7041C404.804 85.6894 403.237 84.9087 401.576 84.3921C399.427 83.7434 397.347 82.8832 395.368 81.8241C394.208 81.1505 393.196 80.2499 392.392 79.1761C391.596 78.0395 390.978 76.7877 390.56 75.4641C390.112 74.1761 389.76 72.8721 389.256 71.6561C388.825 70.467 388.121 69.3957 387.2 68.5281C385.336 66.8721 382.4 66.5121 379.496 66.7361C376.592 66.9601 373.544 67.6961 370.432 67.4481C368.889 67.3277 367.383 66.9179 365.992 66.2401C364.702 65.6003 363.503 64.7933 362.424 63.8401C360.55 62.087 358.824 60.1818 357.264 58.1441C355.96 56.4512 354.485 54.8964 352.864 53.5041C351.743 52.4916 350.422 51.7274 348.985 51.2614C347.548 50.7954 346.03 50.6382 344.528 50.8001C343.707 50.9117 342.912 51.1634 342.176 51.5441C341.656 51.8001 341.376 51.9601 341.336 51.9041C341.296 51.8481 341.472 51.5841 341.944 51.1921C342.647 50.6239 343.466 50.217 344.344 50.0001C345.746 49.6609 347.205 49.639 348.616 49.9361C350.488 50.3348 352.245 51.1556 353.752 52.3361C355.518 53.7191 357.128 55.2911 358.552 57.0241C360.111 58.9337 361.812 60.7227 363.64 62.3761C365.547 64.131 367.979 65.208 370.56 65.4401C373.248 65.6401 376.16 64.9601 379.304 64.6881C380.907 64.5416 382.523 64.6197 384.104 64.9201C385.737 65.2161 387.261 65.9424 388.52 67.0241C389.667 68.112 390.541 69.455 391.072 70.9441C391.6 72.3201 391.944 73.6481 392.344 74.8721C392.681 76.0286 393.188 77.1287 393.848 78.1361C394.491 79.0371 395.307 79.8012 396.248 80.3841C398.104 81.4462 400.053 82.3352 402.072 83.0401C403.841 83.6849 405.484 84.6324 406.928 85.8401C408.024 86.8116 408.832 88.0651 409.264 89.4641C409.539 90.343 409.573 91.2799 409.36 92.1761C409.2 92.7681 409.024 93.0321 408.976 93.0081Z" fill="#455A64"/>
<path d="M367.064 40.0881C366.325 39.3833 365.735 38.5371 365.33 37.5998C364.924 36.6625 364.712 35.6533 364.704 34.6321C364.71 33.6104 364.97 32.6062 365.46 31.7097C365.95 30.8133 366.655 30.0526 367.512 29.4961C368.706 28.8039 370.095 28.5229 371.464 28.6961C372.624 28.8188 373.737 29.2216 374.707 29.8698C375.677 30.518 376.475 31.3922 377.032 32.4172C377.59 33.4422 377.889 34.5872 377.906 35.7537C377.923 36.9202 377.655 38.0733 377.128 39.1137C376.6 40.1541 375.827 41.0506 374.876 41.7262C373.925 42.4017 372.824 42.836 371.668 42.9917C370.511 43.1474 369.335 43.0198 368.239 42.6199C367.143 42.22 366.16 41.5598 365.376 40.6961" fill="#263238"/>
<path d="M374.056 42.0401C373.577 42.1696 373.076 42.2022 372.584 42.1361C371.383 42.0571 370.208 41.7532 369.12 41.2401C368.036 40.7263 367.057 40.0156 366.232 39.1441C365.865 38.8093 365.573 38.4003 365.376 37.9441C366.479 39.1683 367.814 40.1609 369.304 40.8641C370.795 41.5673 372.41 41.9671 374.056 42.0401V42.0401Z" fill="#00AEC7"/>
<path d="M336.872 79.5201C336.862 79.0927 336.881 78.665 336.928 78.2401C336.908 77.0777 336.744 75.9223 336.44 74.8001C335.939 73.1414 335.319 71.5212 334.584 69.9521C333.665 68.0157 332.934 65.9958 332.4 63.9201C332.151 62.8239 332.054 61.6987 332.112 60.5761C332.18 59.527 332.432 58.498 332.856 57.5361C333.563 55.9068 334.679 54.4877 336.096 53.4161C337.053 52.687 338.138 52.1442 339.296 51.8161C339.604 51.7241 339.92 51.6599 340.24 51.6241C340.464 51.5921 340.576 51.5921 340.576 51.6241C340.576 51.6721 340.128 51.7281 339.344 51.9921C337.983 52.4582 336.735 53.2065 335.684 54.1881C334.632 55.1697 333.799 56.3624 333.24 57.6881C332.843 58.6141 332.61 59.6022 332.552 60.6081C332.501 61.6829 332.598 62.7596 332.84 63.8081C333.369 65.8592 334.087 67.857 334.984 69.7761C335.708 71.3653 336.302 73.0107 336.76 74.6961C337.047 75.8465 337.17 77.0313 337.128 78.2161C337.088 78.6321 337.024 78.9601 336.992 79.1761C336.96 79.3921 336.888 79.5281 336.872 79.5201Z" fill="#455A64"/>
<path d="M344.256 136.664C344.092 136.583 343.934 136.489 343.784 136.384C343.339 136.107 342.914 135.799 342.512 135.464C341.043 134.217 339.803 132.722 338.848 131.048C337.44 128.552 336.512 125.814 336.112 122.976C335.672 119.52 335.715 116.02 336.24 112.576C336.744 108.896 337.496 105.456 338.088 102.312C338.646 99.5373 339.044 96.7326 339.28 93.9121C339.426 92.0135 339.426 90.1066 339.28 88.2081C339.168 86.8561 339.032 86.1201 339.08 86.1121C339.134 86.2873 339.174 86.4665 339.2 86.6481C339.28 86.9921 339.352 87.5121 339.44 88.1921C339.65 90.0993 339.693 92.0213 339.568 93.9361C339.367 96.7719 338.996 99.593 338.456 102.384C337.88 105.536 337.144 108.976 336.648 112.632C336.124 116.048 336.067 119.52 336.48 122.952C336.853 125.757 337.74 128.469 339.096 130.952C340.014 132.62 341.204 134.123 342.616 135.4C343.6 136.232 344.28 136.616 344.256 136.664Z" fill="#455A64"/>
<path d="M379.928 134.992C379.928 134.992 379.928 134.936 380.072 134.848L380.528 134.464C380.936 134.128 381.528 133.664 382.272 132.976C384.386 131.134 386.286 129.059 387.936 126.792C390.411 123.448 391.929 119.493 392.328 115.352C392.553 112.918 392.258 110.464 391.464 108.152C390.664 105.752 389.024 103.624 387.68 101.248C386.983 100.077 386.463 98.8105 386.136 97.4881C385.859 96.1956 385.754 94.8721 385.824 93.5521C385.928 90.9681 386.392 88.5361 386.44 86.2001C386.515 83.9892 386.267 81.7793 385.704 79.6401C385.212 77.7756 384.379 76.0181 383.248 74.4561C381.604 72.1807 379.252 70.515 376.56 69.7201C375.566 69.4643 374.546 69.3247 373.52 69.3041H373.72H374.32C375.089 69.3229 375.853 69.4248 376.6 69.6081C379.362 70.3609 381.789 72.024 383.488 74.3281C384.652 75.9126 385.517 77.6966 386.04 79.5921C386.633 81.762 386.902 84.0075 386.84 86.2561C386.84 88.6561 386.344 91.0561 386.248 93.6161C386.178 94.8986 386.281 96.1847 386.552 97.4401C386.872 98.7259 387.378 99.9577 388.056 101.096C389.376 103.432 391.04 105.584 391.864 108.064C392.671 110.428 392.966 112.937 392.728 115.424C392.309 119.63 390.737 123.639 388.184 127.008C386.504 129.276 384.559 131.336 382.392 133.144C381.592 133.784 381.024 134.256 380.6 134.568L380.112 134.92C380.053 134.949 379.991 134.973 379.928 134.992V134.992Z" fill="#455A64"/>
<path d="M380.04 78.96C380.04 78.96 380.296 79.088 380.656 79.44C381.181 79.9401 381.555 80.5777 381.736 81.28C381.849 81.8153 381.835 82.3695 381.696 82.8986C381.557 83.4276 381.297 83.9171 380.936 84.328C380.513 84.8503 379.965 85.2575 379.342 85.512C378.72 85.7665 378.044 85.86 377.376 85.784C376.711 85.6814 376.084 85.4056 375.559 84.9844C375.034 84.5631 374.628 84.0112 374.384 83.384C374.175 82.833 374.123 82.235 374.232 81.656C374.328 81.1562 374.533 80.6837 374.832 80.272C375.25 79.672 375.855 79.2275 376.552 79.008C376.806 78.9077 377.082 78.8773 377.352 78.92C377.352 78.96 377.08 78.984 376.632 79.16C376.002 79.4218 375.467 79.8681 375.096 80.44C374.817 80.8462 374.642 81.3142 374.585 81.8035C374.527 82.2927 374.59 82.7885 374.768 83.248C374.995 83.8054 375.362 84.2952 375.832 84.6706C376.303 85.0459 376.862 85.2943 377.456 85.392C378.055 85.4563 378.66 85.3716 379.219 85.1455C379.777 84.9195 380.271 84.5589 380.656 84.096C380.988 83.7302 381.232 83.2939 381.37 82.82C381.509 82.3461 381.538 81.8469 381.456 81.36C381.307 80.6934 380.993 80.0746 380.544 79.56C380.362 79.3726 380.193 79.172 380.04 78.96V78.96Z" fill="#E3E829"/>
<path d="M376.088 46C376.082 46.1217 376.063 46.2423 376.032 46.36C376.032 46.496 375.968 46.64 375.928 46.8L375.736 47.384C375.268 48.6123 374.546 49.7275 373.616 50.656C372.245 52.0588 370.493 53.0271 368.576 53.44C367.44 53.674 366.271 53.6957 365.128 53.504C363.914 53.2828 362.732 52.9148 361.608 52.408C359.296 51.384 357.296 50.064 355.368 49.12C353.699 48.2096 351.866 47.6386 349.976 47.44C348.7 47.3233 347.414 47.4984 346.216 47.952C345.416 48.296 344.976 48.608 344.952 48.576C345.033 48.483 345.127 48.4022 345.232 48.336C345.522 48.131 345.83 47.9516 346.152 47.8C347.362 47.2808 348.678 47.056 349.992 47.144C351.929 47.2963 353.815 47.8406 355.536 48.744C357.504 49.688 359.536 50.992 361.776 51.992C362.866 52.5074 364.016 52.8863 365.2 53.12C366.291 53.3246 367.412 53.3246 368.504 53.12C370.358 52.7384 372.064 51.8301 373.416 50.504C374.341 49.6154 375.08 48.5522 375.592 47.376L375.824 46.816L375.96 46.4C376.024 46.136 376.072 46 376.088 46Z" fill="#455A64"/>
<path d="M360.32 220.624L310.112 244.888L218.072 219.792L263.256 195.104L360.32 220.624Z" fill="#263238"/>
<path d="M304.96 219.6L318.288 224L330.632 217.296L310.088 210.704L298.096 216.92L304.96 219.6Z" fill="#455A64"/>
<path d="M206.36 152.016C206.776 153.688 218.072 219.792 218.072 219.792L310.072 244.888L298 174.184L206.36 152.016Z" fill="#263238"/>
<path d="M303.416 205.856C303.528 205.856 305.12 214.56 306.968 225.336C308.816 236.112 310.224 244.872 310.112 244.888C310 244.904 308.408 236.192 306.56 225.408C304.712 214.624 303.304 205.872 303.416 205.856Z" fill="#455A64"/>
<path d="M255.302 200.353C257.79 199.389 258.9 196.263 257.78 193.371C256.66 190.479 253.734 188.915 251.246 189.879C248.757 190.843 247.648 193.969 248.768 196.861C249.888 199.753 252.813 201.317 255.302 200.353Z" fill="#455A64"/>
<path d="M349.128 210.84C349.128 210.84 403.024 215.456 411.944 208.992C420.864 202.528 420.872 159.136 420.872 159.136L394.168 156.672L393.784 186.832C391.944 188.368 345.472 196.064 341.472 195.76C341.472 195.76 317.112 198.36 315.784 198.36C314.456 198.36 305.64 208.4 305.64 208.864C305.67 209.215 305.771 209.557 305.938 209.868C306.104 210.178 306.332 210.452 306.608 210.672C306.304 211.055 306.148 211.534 306.17 212.023C306.192 212.511 306.39 212.974 306.728 213.328C306.728 213.328 306.368 215.024 307.696 215.384C309.024 215.744 309.144 216.352 310.712 215.384C312.28 214.416 320.008 208.4 320.008 208.4L325.808 207.912C325.808 207.912 311.68 216 312.888 217.816C314.096 219.632 316.888 217.576 320.008 215.88C323.128 214.184 328.344 211.176 329.304 210.928C330.264 210.68 349.128 210.84 349.128 210.84Z" fill="#B78876"/>
<path d="M323.6 203.24C323.6 203.32 322.48 203.312 320.752 203.76C318.51 204.388 316.401 205.418 314.528 206.8C312.665 208.207 310.915 209.758 309.296 211.44C308.643 212.163 307.942 212.842 307.2 213.472C307.334 213.245 307.492 213.033 307.672 212.84C308 212.456 308.472 211.904 309.08 211.24C310.65 209.469 312.395 207.861 314.288 206.44C316.198 205.023 318.375 204.005 320.688 203.448C321.39 203.29 322.105 203.199 322.824 203.176C323.084 203.155 323.346 203.177 323.6 203.24V203.24Z" fill="#A36957"/>
<path d="M320.568 201.264C320.568 201.344 319.6 201.328 318.112 201.736C316.179 202.291 314.37 203.212 312.784 204.448C311.198 205.703 309.723 207.092 308.376 208.6C307.832 209.243 307.244 209.847 306.616 210.408C307.067 209.692 307.584 209.02 308.16 208.4C309.458 206.821 310.923 205.386 312.528 204.12C314.152 202.844 316.032 201.933 318.04 201.448C318.646 201.307 319.265 201.229 319.888 201.216C320.115 201.191 320.346 201.207 320.568 201.264V201.264Z" fill="#A36957"/>
<path d="M402.256 195.992C402.184 195.992 402.008 195.28 401.528 194.192C400.256 191.339 398.037 189.013 395.248 187.608C394.184 187.08 393.464 186.864 393.488 186.808C394.145 186.878 394.785 187.065 395.376 187.36C396.834 188.006 398.15 188.933 399.248 190.089C400.347 191.245 401.206 192.607 401.776 194.096C402.048 194.694 402.211 195.336 402.256 195.992V195.992Z" fill="#AA6550"/>
<path d="M309.648 252.616C307.304 253.192 306.256 256.216 307.04 258.496C307.824 260.776 309.896 262.36 311.992 263.544C318.32 267.104 326.72 267.944 332.6 263.688C335.176 261.832 337.192 258.536 336.128 255.544C335.2 252.928 332.328 251.544 329.648 250.84C322.419 248.908 314.746 249.507 307.904 252.536" fill="#E3E7F2"/>
<path d="M306.2 233.688C306.2 233.688 301.864 262.488 322.008 261.592C340.888 260.728 334.272 232.664 334.272 232.664L306.2 233.688Z" fill="#455A64"/>
<path d="M331.104 253.6C332.69 254.644 334.505 255.289 336.394 255.478C338.283 255.668 340.19 255.396 341.952 254.688C343.701 253.947 345.236 252.778 346.413 251.287C347.59 249.797 348.373 248.033 348.688 246.16C348.964 244.28 348.744 242.361 348.049 240.593C347.354 238.825 346.21 237.269 344.728 236.08C343.218 234.927 341.424 234.205 339.537 233.989C337.649 233.773 335.739 234.073 334.008 234.856L333.72 238.144C334.799 237.655 335.991 237.467 337.169 237.601C338.346 237.735 339.466 238.185 340.408 238.904C341.332 239.648 342.047 240.62 342.48 241.724C342.914 242.828 343.051 244.026 342.88 245.2C342.68 246.369 342.191 247.47 341.455 248.401C340.72 249.331 339.763 250.063 338.672 250.528C337.572 250.967 336.383 251.134 335.205 251.016C334.027 250.897 332.894 250.497 331.904 249.848L331.104 253.6Z" fill="#455A64"/>
<path d="M334.272 232.664C334.352 234.448 328.128 236.184 320.368 236.544C312.608 236.904 306.24 235.744 306.16 233.96C306.08 232.176 312.304 230.432 320.064 230.072C327.824 229.712 334.192 230.872 334.272 232.664Z" fill="#00AEC7"/>
<g opacity="0.2">
<path d="M335.112 237.712C334.29 238.011 333.57 238.537 333.036 239.23C332.501 239.922 332.176 240.753 332.096 241.624C332.029 243.385 332.438 245.132 333.28 246.68C333.512 247.16 333.912 247.712 334.44 247.616C334.968 247.52 335.128 246.888 335.184 246.376C335.594 243.543 335.567 240.664 335.104 237.84" fill="black"/>
</g>
<path d="M330 235.232C336.536 233.488 316.4 234.208 309.904 236.032C309.88 236.024 320.576 237.744 330 235.232Z" fill="#263238"/>
</g>
<defs>
<clipPath id="clip0_712_4637">
<rect width="503" height="306" fill="white"/>
</clipPath>
</defs>
</svg>
