<svg width="488" height="320" viewBox="0 0 488 320" fill="none" xmlns="http://www.w3.org/2000/svg">
<path d="M401.186 7.00977H297.357V178.872H401.186V7.00977Z" fill="#E3E7F2"/>
<path d="M397.729 7.00977H293.901V178.872H397.729V7.00977Z" fill="#EBEBEB"/>
<path d="M393.318 10.4958H298.329V175.394H393.318V10.4958Z" fill="white"/>
<path d="M374.818 31.924H316.406V153.965H374.818V31.924Z" fill="#EBEBEB"/>
<path d="M316.407 110.778C316.271 99.3784 326.526 88.2502 337.812 86.6841C343.196 85.9312 348.918 87.0003 353.947 84.9373C362.922 81.2555 365.783 69.3217 374.818 65.783L375.233 153.995H316.407V110.778Z" fill="#E3E7F2"/>
<path d="M171.657 17.4076H78.377V114.64H171.657V17.4076Z" fill="#E3E7F2"/>
<path d="M165.34 17.4076H72.0605V114.64H165.34V17.4076Z" fill="#FAFAFA"/>
<path d="M165.363 114.67H72V17.3776H165.363V114.67ZM72.0904 114.61H165.31V17.4378H72.0904V114.61Z" fill="#E3E7F2"/>
<path d="M152.796 30.4784H84.5967V101.569H152.796V30.4784Z" fill="white"/>
<path d="M84.5965 102.044C84.1146 102.759 83.5575 103.422 82.9175 104.001C81.8257 105.146 80.2973 106.704 78.5806 108.391C76.864 110.077 75.2904 111.591 74.1233 112.66C73.5361 113.285 72.8735 113.834 72.1582 114.301C72.6325 113.586 73.1972 112.931 73.8297 112.351C74.9214 111.199 76.4499 109.641 78.1741 107.947C79.8983 106.253 81.4719 104.747 82.6389 103.678C83.2186 103.053 83.8812 102.503 84.5965 102.044Z" fill="#E3E7F2"/>
<path d="M152.781 101.871C153.504 102.345 154.159 102.91 154.739 103.55C155.891 104.641 157.442 106.17 159.136 107.886C160.83 109.603 162.328 111.177 163.397 112.344C164.022 112.931 164.572 113.594 165.039 114.309C164.324 113.835 163.676 113.27 163.096 112.637C161.944 111.546 160.386 110.017 158.692 108.293C156.998 106.569 155.484 104.995 154.415 103.828C153.798 103.241 153.248 102.586 152.781 101.871Z" fill="#E3E7F2"/>
<path d="M152.608 30.6667C153.09 29.9514 153.655 29.2963 154.287 28.7091C155.379 27.5646 156.908 26.0061 158.624 24.3195C160.341 22.633 161.915 21.1196 163.082 20.0504C163.669 19.4255 164.331 18.8759 165.047 18.4091C164.572 19.1243 164.008 19.7794 163.375 20.3591C162.283 21.5111 160.755 23.0697 159.031 24.7637C157.307 26.4578 155.733 27.9637 154.566 29.0328C153.986 29.6577 153.331 30.2074 152.608 30.6667Z" fill="#E3E7F2"/>
<path d="M84.4158 30.8398C83.693 30.3654 83.0379 29.8007 82.4582 29.1608C81.3062 28.069 79.7552 26.5406 78.0611 24.8239C76.367 23.1073 74.8687 21.5562 73.7996 20.3666C73.1746 19.7793 72.625 19.1168 72.1582 18.4015C72.8735 18.8683 73.521 19.4255 74.1007 20.0504C75.2527 21.1346 76.8113 22.6706 78.5053 24.3948C80.1994 26.119 81.7128 27.6926 82.782 28.8596C83.4069 29.4544 83.949 30.117 84.4158 30.8398Z" fill="#E3E7F2"/>
<path d="M152.608 101.569V100.229C152.608 99.3408 152.608 98.0608 152.57 96.3969C152.57 93.0238 152.532 88.1147 152.502 81.9031C152.502 69.4573 152.427 51.7184 152.374 30.4784L152.63 30.7419H84.6262L84.9349 30.4408C84.9349 56.5371 84.9349 80.9469 84.8897 101.532L84.6262 101.276L133.875 101.404L147.706 101.472H152.314C152.419 101.472 152.532 101.472 152.638 101.472C152.54 101.479 152.442 101.479 152.344 101.472H147.812L134.041 101.539L84.6262 101.667H84.3401V101.404C84.3401 80.8189 84.3401 56.4091 84.2949 30.3128V30.0116H152.879V30.2751C152.826 51.5829 152.781 69.382 152.751 81.873C152.751 88.0695 152.698 92.9485 152.683 96.299C152.683 97.9403 152.683 99.2053 152.645 100.064V101.027C152.668 101.208 152.653 101.396 152.608 101.569Z" fill="#E3E7F2"/>
<path d="M130.073 54.6472H107.319V77.4006H130.073V54.6472Z" fill="#EBEBEB"/>
<path d="M394.71 318.374C394.71 318.487 323.265 318.569 235.166 318.569C147.066 318.569 75.5986 318.487 75.5986 318.374C75.5986 318.261 147.028 318.178 235.166 318.178C323.303 318.178 394.71 318.268 394.71 318.374Z" fill="#263238"/>
<path d="M93.0215 278.996L99.0148 318.374H133.83L141.909 279.56L93.0215 278.996Z" fill="#8189A9"/>
<path d="M137.045 304.234C137.045 304.347 128.122 304.437 117.122 304.437C106.122 304.437 97.1924 304.347 97.1924 304.234C97.1924 304.121 106.115 304.03 117.122 304.03C128.13 304.03 137.045 304.121 137.045 304.234Z" fill="#FAFAFA"/>
<path d="M137.18 302.299C137.18 302.412 128.198 302.502 117.122 302.502C106.047 302.502 97.0645 302.397 97.0645 302.299C97.0645 302.201 106.047 302.095 117.13 302.095C128.213 302.095 137.18 302.186 137.18 302.299Z" fill="#FAFAFA"/>
<path d="M137.113 300.138C137.113 300.251 128.13 300.341 117.047 300.341C105.964 300.341 96.9893 300.221 96.9893 300.138C96.9893 300.055 105.972 299.935 117.047 299.935C128.123 299.935 137.113 299.995 137.113 300.138Z" fill="#FAFAFA"/>
<path d="M103.013 316.13C102.17 312.862 101.59 309.527 101.281 306.161C101.763 307.78 102.117 309.429 102.335 311.1C102.697 312.757 102.923 314.436 103.013 316.13Z" fill="#FAFAFA"/>
<path d="M105.385 315.708C105.136 314.105 104.986 312.493 104.948 310.875C104.767 309.263 104.692 307.637 104.722 306.018C105.099 307.599 105.31 309.218 105.355 310.844C105.535 312.463 105.543 314.09 105.385 315.708Z" fill="#FAFAFA"/>
<path d="M109.698 315.708C109.224 314.09 108.923 312.426 108.795 310.747C108.531 309.083 108.441 307.396 108.524 305.709C108.848 307.358 109.073 309.022 109.201 310.701C109.457 312.358 109.631 314.029 109.698 315.708Z" fill="#FAFAFA"/>
<path d="M112.725 315.949C112.394 314.285 112.236 312.599 112.244 310.905C112.123 309.218 112.176 307.524 112.402 305.845C112.582 307.524 112.665 309.203 112.658 310.89C112.778 312.576 112.801 314.263 112.725 315.949Z" fill="#FAFAFA"/>
<path d="M118.094 315.708C117.71 312.539 117.604 309.346 117.77 306.161C118.026 307.742 118.147 309.339 118.131 310.942C118.252 312.531 118.237 314.127 118.094 315.708Z" fill="#FAFAFA"/>
<path d="M122.009 315.949C121.821 314.308 121.768 312.651 121.844 311.002C121.791 309.346 121.874 307.697 122.092 306.056C122.341 309.354 122.31 312.659 122.009 315.949Z" fill="#FAFAFA"/>
<path d="M125.675 315.392C125.638 313.66 125.743 311.936 125.977 310.219C126.074 308.495 126.308 306.771 126.677 305.085C126.714 306.816 126.617 308.54 126.383 310.257C126.285 311.981 126.044 313.698 125.675 315.392Z" fill="#FAFAFA"/>
<path d="M130.419 314.873C130.426 313.389 130.622 311.914 131.006 310.475C131.255 309.015 131.691 307.592 132.301 306.237C132.09 307.697 131.789 309.143 131.405 310.566C131.164 312.019 130.833 313.457 130.419 314.873Z" fill="#FAFAFA"/>
<path d="M89.0234 271.195V278.567C89.0234 280.17 90.3185 281.465 91.9222 281.465H142.376C143.979 281.465 145.274 280.17 145.274 278.567V271.195H89.0234Z" fill="#8189A9"/>
<g opacity="0.4">
<path d="M93.3975 281.465L93.8191 283.814L140.335 287.127L141.517 281.465H93.3975Z" fill="black"/>
</g>
<path d="M96.6203 271.233C96.6203 271.233 77.0443 248.645 79.1977 247.817C81.3511 246.989 98.7737 259.525 98.7737 259.525C98.7737 259.525 83.7981 226.043 86.7947 223.596C89.7913 221.149 105.618 253.268 105.618 253.268C105.618 253.268 103.171 206.444 105.618 205.894C108.065 205.345 117.04 252.704 117.04 252.704C117.04 252.704 130.374 209.418 134.184 209.418C137.993 209.418 130.103 251.07 130.103 251.07C130.103 251.07 145.914 224.394 148.346 227.932C150.778 231.471 137.18 260.308 137.18 260.308C137.18 260.308 157.058 243.699 157.871 245.875C158.684 248.051 136.367 271.195 136.367 271.195L96.6203 271.233Z" fill="#4EC3E0"/>
<path d="M93.8869 237.201C94.0224 237.141 97.4934 244.595 101.65 253.848C105.806 263.102 109.058 270.653 108.923 270.721C108.787 270.789 105.309 263.327 101.16 254.066C97.0115 244.806 93.7514 237.261 93.8869 237.201Z" fill="#263238"/>
<path d="M109.721 241.365C109.864 241.365 110.474 247.93 111.009 256.039C111.543 264.148 111.912 270.744 111.762 270.751C111.611 270.759 111.009 264.193 110.474 256.077C109.94 247.96 109.571 241.41 109.721 241.365Z" fill="#263238"/>
<path d="M131.556 220.396C131.541 220.576 131.504 220.757 131.444 220.93L131.014 222.436C130.608 223.799 130.051 225.644 129.373 227.887C127.995 232.495 126.135 238.872 124.246 245.957C122.356 253.042 120.782 259.51 119.728 264.186C119.193 266.444 118.757 268.342 118.433 269.735C118.282 270.337 118.162 270.834 118.064 271.241C118.034 271.421 117.974 271.594 117.898 271.76C117.898 271.579 117.913 271.399 117.959 271.226C118.026 270.811 118.117 270.307 118.23 269.72C118.471 268.395 118.855 266.482 119.359 264.133C120.36 259.427 121.866 252.945 123.764 245.852C125.661 238.759 127.574 232.382 129.034 227.782C129.787 225.523 130.389 223.648 130.841 222.376C131.052 221.789 131.225 221.307 131.361 220.915C131.406 220.735 131.474 220.561 131.556 220.396Z" fill="#263238"/>
<path d="M141.005 244.534C141.126 244.617 137.301 250.324 132.46 257.274C127.619 264.223 123.598 269.795 123.47 269.705C123.342 269.614 127.174 263.922 132.016 256.965C136.857 250.008 140.885 244.422 141.005 244.534Z" fill="#263238"/>
<path d="M103.231 270.774C102.606 270.45 102.026 270.043 101.522 269.554C100.204 268.477 98.9467 267.325 97.7571 266.106C96.575 264.893 95.4532 263.621 94.4066 262.296C93.9548 261.761 93.5784 261.166 93.2998 260.527C93.4203 260.429 95.4607 262.891 98.2089 265.707C100.957 268.523 103.336 270.631 103.231 270.774Z" fill="#263238"/>
<path d="M115.135 261.776C115.286 261.776 115.594 263.847 115.835 266.437C116.076 269.027 116.144 271.135 115.993 271.15C115.843 271.165 115.534 269.072 115.301 266.49C115.067 263.907 114.992 261.791 115.135 261.776Z" fill="#263238"/>
<path d="M239.766 9.45675C241.844 6.8441 245.021 5.36084 248.357 5.43613C249.689 5.43613 251.165 5.72977 252.242 4.9392C252.995 4.37451 253.356 3.43336 253.891 2.6202C255.69 0.233433 259.086 -0.23338 261.473 1.56611C261.518 1.60375 261.563 1.63387 261.608 1.67152C262.083 2.21362 262.647 2.6729 263.28 3.03431C265.983 4.13358 268.354 -0.963716 271.042 0.16567C269.928 0.715304 269.002 1.59622 268.4 2.68796C267.812 3.82488 268.076 5.21026 269.032 6.05353C271.637 7.93584 275.138 2.83855 277.984 4.32934C279.49 5.13496 279.957 7.57444 281.666 7.81537C282.336 7.81537 283.006 7.70996 283.639 7.48409C285.943 7.09257 288.164 8.56077 288.706 10.8346C289.082 12.7244 288.345 15.1488 289.896 16.2858C290.852 16.986 292.154 16.73 293.344 16.4439C293.495 18.2057 293.231 19.9751 292.591 21.6165C295.934 23.2955 297.357 27.3161 295.806 30.7193C297.5 31.6605 298.991 32.9178 300.196 34.4312C301.302 36.0124 301.739 38.1958 300.753 39.8749C300.497 40.2287 300.286 40.6202 300.128 41.0268C300.045 41.4936 300.09 41.983 300.263 42.4273C300.798 44.1816 301.769 45.8305 301.867 47.6977C301.965 49.565 300.82 51.6506 298.991 51.6732C298.562 51.6732 298.087 51.5753 297.749 51.8463C297.515 52.0722 297.387 52.3884 297.395 52.7122C297.395 54.0298 297.613 55.3399 298.027 56.5898C298.328 57.8697 298.471 59.3003 297.801 60.4297C297.131 61.559 295.384 62.1087 294.466 61.1826C295.181 63.1628 295.896 65.143 296.604 67.1232C297.033 68.2977 297.417 69.7283 296.604 70.6995C295.565 71.9644 293.397 71.2492 292.395 69.9466C291.394 68.6441 290.995 66.9349 289.956 65.6926C289.481 65.2183 289.06 64.6987 288.691 64.134C288.45 63.6672 288.329 63.0875 287.885 62.7938C287.004 62.199 285.86 63.4564 286.071 64.4955C286.282 65.5345 287.193 66.2648 287.938 67.0253C288.683 67.7857 289.331 68.9 288.879 69.8638C288.661 70.3231 288.217 70.6167 288.013 71.1287C287.298 72.755 289.707 74.0425 290.136 75.7592C290.46 77.0392 289.632 78.289 288.789 79.3055C287.765 80.5327 285.672 81.6546 284.821 80.2918C284.625 79.7723 284.459 79.2452 284.324 78.7106C283.978 78.161 283.496 77.7017 282.931 77.378C281.621 76.4067 280.635 75.0665 280.085 73.5305C281.591 75.0364 283.21 77.122 282.442 79.1247C282.028 79.9228 281.493 80.6532 280.868 81.2932C279.769 82.671 279.174 84.3877 278.097 85.8107C277.021 87.2337 275.131 88.2652 273.519 87.55C274.348 89.5753 273.376 91.8868 271.351 92.715C269.988 93.2722 268.422 93.0237 267.293 92.0675C266.969 91.7061 266.57 91.4125 266.126 91.2167C265.614 91.1414 265.094 91.2092 264.62 91.4049C261.518 92.2331 258.213 91.2619 256.052 88.8826L257.557 88.1824C254.448 88.0695 251.203 87.934 248.47 86.4206C245.737 84.9072 243.756 81.5868 244.826 78.6579C245.285 77.3855 246.271 76.0378 245.646 74.8406C245.225 74.0124 244.216 73.7112 243.312 73.4854L231.973 70.6694C230.136 70.2177 228.209 69.7057 226.883 68.3504C225.558 66.9952 225.219 64.5105 226.68 63.3209C225.671 61.6946 224.211 60.3845 222.486 59.5563C220.559 58.6302 218.39 58.3441 216.418 57.5158C214.445 56.6876 212.57 55.0161 212.503 52.8854C212.435 50.7546 215.206 48.8271 216.817 50.2275C216.214 47.0577 210.5 47.4041 209.709 44.2795C209.069 41.7421 212.239 40.0857 213.745 37.9474C213.316 37.0815 212.344 36.5921 211.885 35.7488C210.929 33.9644 212.676 31.924 214.415 30.8849C216.154 29.8459 218.285 28.7542 218.533 26.7514C218.782 24.7486 216.854 22.5877 217.781 20.728C218.33 19.6589 219.618 19.2071 220.709 19.6965C221.824 15.8717 228.992 17.9874 230.723 14.3809C230.866 14.0948 230.919 13.7785 230.874 13.4623C230.799 13.1988 230.656 12.9654 230.452 12.7771C229.556 11.8435 228.261 11.4219 227.17 10.7292C226.078 10.0365 225.061 8.75653 225.4 7.50667C225.739 6.25682 228.028 6.08365 228.126 7.37115C229.27 6.29447 231.07 6.33964 232.146 7.48409C232.304 7.64973 232.448 7.83796 232.56 8.04125C233.313 6.88175 235.09 6.73116 236.325 7.32597C237.537 8.03372 238.569 9.01252 239.337 10.1871" fill="#263238"/>
<path d="M261.119 48.5034C259.349 43.3609 254.952 39.5436 250.261 36.7879C248.296 35.6284 246.173 34.5894 243.892 34.5291C241.61 34.4689 239.156 35.5381 238.26 37.6312L239.013 41.3958C239.246 47.4192 244.479 51.9367 247.355 57.2825C248.605 59.6015 249.742 62.4325 252.264 63.1854C253.619 63.5092 255.057 63.3285 256.285 62.6659C261.201 60.2415 262.888 53.6459 261.119 48.5034Z" fill="#00AEC7"/>
<path d="M264.966 76.1808C267.744 71.0007 266.427 64.5783 261.827 60.9115C263.656 57.8471 262.293 53.691 259.688 51.2515C257.083 48.8121 253.544 47.6902 250.134 46.6436C247.295 38.7831 237.439 34.3108 229.654 37.3676C224.632 31.7659 215.559 31.9993 208.685 35.0486C206.999 35.8015 205.342 36.69 203.52 36.9234C202.172 37.0062 200.825 37.0062 199.477 36.9234C192.068 36.9234 185.525 43.0221 183.598 50.1824C183.372 51.3494 182.995 52.4788 182.468 53.5479C181.715 54.8881 180.353 55.8067 179.261 56.906C176.874 59.3455 175.669 62.7035 175.956 66.1067C176.219 68.9528 177.522 71.8289 176.709 74.562C176.287 75.9248 175.346 77.1144 175.06 78.5149C174.239 82.5807 179.08 85.9764 178.824 90.1174C178.772 90.9607 178.5 91.7814 178.38 92.6171C178.139 94.3489 178.538 96.1107 179.494 97.5789C180.247 98.6932 181.301 99.6645 181.557 100.975C181.625 101.984 181.557 102.992 181.369 103.986C181.196 106.463 187.641 115.054 189.9 116.086L252.167 108.24C256.842 106.509 259.907 102.014 259.816 97.0293C259.681 96.2312 259.779 95.4105 260.087 94.6576C260.509 94.1155 261.036 93.6637 261.638 93.3324C265.358 90.6445 265.102 85.0503 264.07 80.608C263.882 79.9906 263.814 79.3431 263.852 78.7031C264.048 77.7921 264.424 76.9337 264.966 76.1808Z" fill="#263238"/>
<path d="M247.257 78.6504C245.962 67.62 237.364 55.9045 225.701 51.9893C218.353 49.5198 212.977 50.22 209.295 50.2877C204.145 50.4835 199.168 52.2453 195.042 55.3323C191.722 56.5972 180.736 69.7884 181.73 82.3623C182.867 96.329 184.81 113.33 187.949 123.419C194.266 143.695 210.537 144.027 210.537 144.027L215.717 167.623L237.793 205.51L259.025 157.557L247.257 78.6504Z" fill="#F8B679"/>
<path d="M218.541 115.792C218.285 114.746 217.66 113.827 216.771 113.21C215.108 112.02 212.864 112.095 211.283 113.39C209.664 114.874 208.986 117.125 209.506 119.256C210.537 120.46 212.043 121.16 213.632 121.176C213.88 121.176 214.136 121.16 214.385 121.13C215.612 121.017 216.749 120.445 217.577 119.527C218.451 118.495 218.812 117.117 218.541 115.792Z" fill="#263238"/>
<path d="M195.133 96.3592C194.982 95.7268 194.598 95.1771 194.071 94.8082C193.077 94.0929 191.722 94.1381 190.773 94.9136C189.802 95.802 189.395 97.1573 189.704 98.4373C190.321 99.1601 191.225 99.5817 192.181 99.5893C192.332 99.5893 192.482 99.5817 192.633 99.5591C193.371 99.4914 194.056 99.145 194.553 98.5954C195.08 97.978 195.291 97.1498 195.133 96.3517V96.3592Z" fill="#263238"/>
<path d="M223.081 90.4035C222.93 89.7711 222.546 89.2214 222.019 88.8525C221.025 88.1372 219.67 88.1824 218.721 88.9579C217.75 89.8464 217.344 91.2016 217.652 92.4816C218.27 93.2044 219.173 93.626 220.129 93.6336C220.28 93.6336 220.431 93.626 220.581 93.6034C221.319 93.5357 222.004 93.1893 222.501 92.6397C223.028 92.0223 223.239 91.1941 223.081 90.396V90.4035Z" fill="#263238"/>
<path d="M207.609 109.837C207.609 109.671 205.779 109.618 202.835 109.671C202.082 109.671 201.382 109.671 201.186 109.174C201.013 108.421 201.073 107.63 201.359 106.915C201.789 105.04 202.24 103.083 202.715 101.027C204.559 92.6623 205.794 85.8183 205.455 85.7505C205.117 85.6827 203.34 92.4064 201.487 100.809C201.051 102.872 200.629 104.837 200.23 106.712C200.072 107.585 199.733 108.602 200.23 109.641C200.524 110.13 201.021 110.461 201.585 110.537C202.007 110.589 202.436 110.589 202.858 110.537C205.824 110.251 207.624 110.002 207.609 109.837Z" fill="#263238"/>
<path d="M210.561 144.027C220.356 142.754 229.61 138.786 237.289 132.567C237.289 132.567 232.772 148.108 211.69 149.184L210.561 144.027Z" fill="#9D4841"/>
<path d="M185.654 93.7992C186.339 94.3488 188.304 93.227 190.849 92.6623C193.394 92.0976 195.63 92.1127 195.976 91.3371C196.127 90.9682 195.637 90.396 194.583 89.9744C193.145 89.4925 191.602 89.4322 190.134 89.8087C188.658 90.1325 187.31 90.8854 186.256 91.9621C185.511 92.8053 185.352 93.5282 185.654 93.7917V93.7992Z" fill="#263238"/>
<path d="M228.05 85.7656C227.523 86.4507 225.257 85.9086 222.569 86.0291C219.881 86.1496 217.615 86.7444 217.072 86.0969C216.824 85.7731 217.148 85.0955 218.104 84.4179C218.676 83.8682 220.415 83.2282 222.501 83.0852C224.052 83.0174 225.596 83.3863 226.943 84.1543C227.922 84.7717 228.284 85.4268 228.043 85.7656H228.05Z" fill="#263238"/>
<path d="M246.686 98.8213C246.46 97.2778 247.717 93.3701 249.215 92.9108C253.198 91.6836 260.592 90.9457 262.166 101.291C264.319 115.431 249.675 114.67 249.592 114.271C249.509 113.872 247.446 104.159 246.686 98.8213Z" fill="#F8B679"/>
<path d="M252.701 108.511C252.761 108.459 252.979 108.647 253.454 108.775C254.079 108.933 254.741 108.843 255.298 108.526C256.714 107.774 257.61 105.191 257.286 102.631C257.143 101.411 256.721 100.244 256.066 99.2128C255.66 98.3545 254.854 97.7521 253.921 97.6015C253.311 97.5338 252.746 97.9102 252.573 98.4975C252.437 98.9192 252.573 99.1902 252.505 99.2504C252.437 99.3107 252.166 99.0547 252.189 98.4975C252.211 98.1286 252.362 97.7898 252.61 97.5187C252.957 97.1648 253.424 96.9616 253.921 96.954C255.02 96.8637 256.179 97.707 256.827 98.7535C257.61 99.8904 258.114 101.201 258.28 102.571C258.619 105.432 257.565 108.323 255.615 109.219C254.884 109.573 254.033 109.573 253.303 109.219C252.784 108.85 252.656 108.542 252.701 108.511Z" fill="#9D4841"/>
<path d="M251.368 75.5634C249.998 68.8774 246.693 62.6884 242.484 57.3276C240.752 55.0387 238.727 52.9907 236.461 51.2289C233.773 49.3692 230.881 47.8257 227.847 46.621C223.947 44.9194 219.949 43.2253 215.71 42.8564C207.812 42.1562 200.275 46.0789 193.627 50.3856C191.037 51.9442 188.673 53.8415 186.587 56.0326C184.2 58.7355 182.634 62.0559 181.316 65.429C179.442 70.2929 178.049 75.4504 178.305 80.6607L178.516 83.0098C181.121 80.8037 182.589 78.1083 181.926 74.7653C183.907 75.0589 185.473 72.3333 186.346 70.5339C187.219 68.7344 188.447 67.7104 188.078 65.7453C187.972 65.3613 187.972 64.9622 188.078 64.5782C188.281 63.991 188.936 63.7199 189.493 63.4488C192.415 62.0032 194.402 59.1647 194.764 55.9196C198.009 56.8382 201.442 56.9361 204.732 56.1907C207.639 59.3304 212.533 59.5186 215.672 56.6123C216.531 55.8142 217.201 54.8354 217.622 53.7512C218.842 55.3549 220.709 56.3488 222.72 56.4768C224.707 56.5822 226.703 56.409 228.638 55.9497C228.457 60.023 231.296 63.6145 235.309 64.3674C235.843 64.3674 236.363 64.5782 236.739 64.9547C236.958 65.4667 236.958 66.054 236.739 66.566C236.114 70.0821 238.456 73.4326 241.964 74.0575C242.04 74.0726 242.115 74.0801 242.198 74.0952C240.142 76.2184 240.978 80.3369 243.704 81.4964C244.268 81.7298 244.991 82.0084 244.999 82.6183C244.976 82.8517 244.901 83.07 244.773 83.2658C243.922 84.8168 243.094 86.4958 243.222 88.2652C243.35 90.0346 244.811 91.8265 246.572 91.6458C245.684 92.5343 245.195 93.754 245.225 95.0114C245.375 96.2387 246.806 97.3153 247.89 96.7055C248.349 96.4495 255.201 94.0401 255.419 93.5733C258.642 87.5273 252.739 82.2494 251.368 75.5634Z" fill="#263238"/>
<path d="M175.029 78.4697C175.127 77.905 175.315 77.3554 175.579 76.8434C175.805 76.3314 176.151 75.7215 176.452 74.9611C176.784 74.0801 176.927 73.139 176.866 72.1978C176.776 71.0233 176.588 69.8487 176.302 68.7043C175.948 67.3264 175.782 65.9109 175.812 64.4879C175.888 62.8465 176.302 61.2353 177.032 59.7595C177.424 58.9539 177.913 58.1935 178.485 57.5008C179.095 56.7855 179.765 56.1229 180.48 55.5131C181.226 54.8957 181.858 54.1729 182.37 53.3522C182.807 52.4411 183.131 51.4849 183.327 50.4911C184.448 46.0563 187.121 42.1637 190.856 39.521C191.865 38.8132 192.941 38.2184 194.078 37.7441C195.26 37.2773 196.488 36.961 197.745 36.7954C198.385 36.7201 199.025 36.6749 199.672 36.6749C200.32 36.6749 200.96 36.7201 201.607 36.7427C202.887 36.833 204.167 36.6448 205.372 36.2081C206.607 35.7789 207.781 35.139 209.046 34.627C211.606 33.5503 214.332 32.9028 217.103 32.7145C218.526 32.6242 219.956 32.6844 221.364 32.8802C224.286 33.2642 227.011 34.5517 229.164 36.562L229.789 37.1869L229.548 37.1267C237.876 34.2731 246.986 38.4066 250.314 46.5608L250.179 46.4328C251.993 46.9598 253.778 47.5998 255.517 48.3452C257.211 49.0605 258.762 50.077 260.087 51.3569C261.344 52.6369 262.225 54.2331 262.632 55.9799C263.054 57.6664 262.813 59.4433 261.962 60.9567L261.917 60.7233C264.093 62.4098 265.614 64.8117 266.216 67.4996C266.803 69.9014 266.645 72.4312 265.749 74.7427C265.538 75.2622 265.282 75.7667 264.996 76.2486C264.71 76.7304 264.416 77.1822 264.198 77.649C263.98 78.1083 263.882 78.6052 263.897 79.1097C263.934 79.6066 264.025 80.096 264.145 80.5779C264.559 82.3472 264.77 84.1618 264.763 85.9763C264.77 87.4445 264.499 88.8977 263.957 90.2605C263.543 91.2619 262.903 92.1578 262.082 92.8731C261.42 93.4604 260.795 93.739 260.479 94.0552C260.313 94.2058 260.155 94.3714 260.019 94.5521C260.125 94.3489 260.268 94.1681 260.441 94.0176C260.757 93.6787 261.375 93.3851 262.007 92.7903C262.798 92.075 263.415 91.1941 263.807 90.2002C264.326 88.8525 264.582 87.4144 264.559 85.9688C264.544 84.1693 264.326 82.3774 263.904 80.6306C263.769 80.1412 263.679 79.6367 263.633 79.1247C263.611 78.5826 263.724 78.033 263.957 77.5436C264.19 77.0467 264.462 76.5648 264.755 76.1055C266.223 73.5004 266.622 70.436 265.885 67.5448C265.297 64.9246 263.814 62.5905 261.691 60.9492L261.555 60.8513L261.638 60.7158C262.444 59.2852 262.662 57.5911 262.255 56.0025C261.856 54.331 261.013 52.795 259.801 51.5677C258.506 50.3179 256.993 49.3165 255.336 48.6163C253.619 47.8784 251.865 47.246 250.066 46.734H249.968V46.6361C246.685 38.7304 237.816 34.7474 229.729 37.5408L229.601 37.5859L229.488 37.4805L228.886 36.8857C226.793 34.9281 224.135 33.6783 221.296 33.3169C219.919 33.1211 218.518 33.0609 217.125 33.1437C214.415 33.3319 211.757 33.9644 209.25 35.0185C208.015 35.5229 206.825 36.1629 205.553 36.5996C204.92 36.833 204.265 36.9911 203.603 37.089C202.948 37.1643 202.285 37.1869 201.623 37.1568C200.968 37.1568 200.328 37.089 199.695 37.0815C199.07 37.0815 198.445 37.1191 197.82 37.1944C196.593 37.3601 195.388 37.6688 194.236 38.1205C193.122 38.5798 192.068 39.1596 191.082 39.8447C187.4 42.4197 184.765 46.2295 183.65 50.5814C183.447 51.5979 183.108 52.5842 182.649 53.5103C182.122 54.3611 181.459 55.1291 180.691 55.7691C179.976 56.3639 179.313 57.0114 178.711 57.7116C178.146 58.3817 177.672 59.1196 177.281 59.9026C176.558 61.3407 176.136 62.9143 176.053 64.518C176.016 65.926 176.166 67.3264 176.505 68.6892C176.784 69.8487 176.957 71.0233 177.032 72.2129C177.085 73.1766 176.927 74.1329 176.573 75.0288C176.257 75.7818 175.895 76.3992 175.654 76.9036C175.458 77.2801 175.293 77.6716 175.157 78.0782C175.067 78.3266 175.044 78.4772 175.029 78.4697Z" fill="#0033A0"/>
<path d="M222.562 35.1766C222.562 35.1766 222.155 35.011 221.417 34.7776C220.378 34.4388 219.294 34.2807 218.202 34.3108C216.606 34.356 215.047 34.8152 213.685 35.6585C212.013 36.7051 210.726 38.2636 209.995 40.0932C209.777 40.6429 209.619 41.2151 209.521 41.7948C209.393 42.3219 209.513 42.8715 209.837 43.3007L210.251 43.7299L209.657 43.647C208.128 43.4588 206.585 43.8654 205.35 44.7915C204.371 45.5369 203.663 46.5759 203.324 47.758C203.099 48.541 203.016 49.3542 203.099 50.1673C203.166 50.7396 203.249 51.0407 203.219 51.0558C203.174 50.988 203.144 50.9127 203.121 50.8374C203.046 50.6266 202.993 50.4083 202.956 50.1899C202.812 49.3542 202.85 48.5034 203.061 47.6827C203.377 46.4253 204.108 45.3035 205.131 44.5054C206.427 43.4964 208.075 43.0372 209.709 43.2329L209.529 43.5868C209.13 43.0748 208.964 42.4047 209.092 41.7647C209.19 41.1473 209.355 40.5375 209.596 39.9577C210.357 38.0453 211.72 36.4265 213.474 35.3423C214.912 34.4764 216.561 34.0247 218.24 34.0322C219.362 34.0322 220.469 34.2355 221.515 34.6421C221.801 34.7475 222.072 34.8755 222.336 35.0261C222.479 35.1089 222.569 35.1616 222.562 35.1766Z" fill="#0033A0"/>
<path d="M247.852 48.157C247.852 48.157 247.732 48.3829 247.431 48.7367C247.002 49.2337 246.512 49.6854 245.985 50.0769C245.187 50.6868 244.261 51.116 243.282 51.3268C242.032 51.6054 240.722 51.4021 239.615 50.7621L239.924 50.6718L239.593 51.3117C239.465 51.5226 239.322 51.7259 239.186 51.9367C238.351 53.0886 237.244 54.0223 235.964 54.6472C234.925 55.1592 233.803 55.4603 232.651 55.5507C231.875 55.6034 231.1 55.5356 230.347 55.3549C230.068 55.2947 229.797 55.1968 229.549 55.0688C230.565 55.2571 231.597 55.3098 232.621 55.242C233.728 55.1215 234.797 54.7978 235.783 54.2858C236.98 53.6684 238.012 52.7799 238.795 51.6882C238.923 51.4849 239.058 51.2967 239.179 51.0934L239.495 50.4911L239.608 50.2802L239.804 50.4007C240.82 50.9955 242.025 51.1913 243.177 50.9503C244.11 50.7696 244.999 50.3932 245.782 49.8435C247.16 48.9099 247.8 48.1043 247.852 48.157Z" fill="#0033A0"/>
<path d="M257.212 60.2263C257.227 60.3167 257.227 60.3995 257.212 60.4898C257.174 60.7534 257.106 61.0018 256.993 61.2428C256.557 62.0936 255.826 62.7486 254.93 63.0874C253.598 63.5241 252.175 63.5693 250.819 63.223C250.021 63.0724 249.238 62.8841 248.463 62.6583C247.567 62.4324 246.784 61.8978 246.249 61.1524L246.129 60.9416L246.475 60.9943C245.361 62.2216 244.066 63.2757 242.635 64.1114C241.445 64.7966 240.09 65.1354 238.72 65.0902C237.801 65.0676 236.898 64.8041 236.107 64.3373C235.896 64.2093 235.701 64.0587 235.52 63.8855C235.399 63.7651 235.347 63.6973 235.354 63.6898C235.362 63.6822 235.64 63.9006 236.19 64.1867C236.973 64.5933 237.846 64.7966 238.727 64.7966C240.037 64.7966 241.317 64.4427 242.447 63.7801C243.817 62.9368 245.067 61.9053 246.144 60.7082L246.347 60.5049L246.49 60.7609L246.595 60.9416C247.077 61.5966 247.777 62.071 248.568 62.2743C249.328 62.5077 250.096 62.6959 250.872 62.8465C252.152 63.2079 253.515 63.2079 254.795 62.8465C255.645 62.5604 256.361 61.9806 256.82 61.2127C256.978 60.8964 257.106 60.5651 257.212 60.2263Z" fill="#0033A0"/>
<path d="M265.162 7.49911C265.162 7.49911 264.921 7.54429 264.507 7.70993C263.92 7.97345 263.423 8.41015 263.077 8.95978C262.535 9.80306 262.294 10.812 262.392 11.8134C262.565 13.1159 262.926 14.3884 263.476 15.578L263.559 15.7963H263.325C261.563 15.9996 259.922 16.7751 258.642 17.9949C257.166 19.3727 256.436 21.383 256.685 23.3858C256.858 25.2003 257.867 26.8342 259.418 27.8055L259.952 28.1142L259.342 28.197C257.287 28.4906 255.457 29.6275 254.29 31.3442C253.372 32.6995 252.95 34.3258 253.101 35.9521C253.191 37.0212 253.5 38.0678 254.019 39.009C254.388 39.6715 254.659 39.9878 254.637 40.0028C254.614 40.0179 254.554 39.9426 254.418 39.792C254.222 39.5586 254.049 39.3026 253.899 39.0391C253.319 38.0979 252.95 37.0363 252.837 35.937C252.641 34.2429 253.048 32.5263 253.989 31.1033C255.201 29.3038 257.114 28.0916 259.26 27.7678L259.184 28.1518C257.513 27.1278 256.413 25.3735 256.225 23.4234C256.097 22.3468 256.233 21.255 256.632 20.2461C257.016 19.2974 257.603 18.4391 258.348 17.7313C259.696 16.4589 261.435 15.6608 263.28 15.4726L263.13 15.721C262.587 14.4787 262.234 13.1686 262.091 11.8209C262 10.7517 262.286 9.69012 262.896 8.8092C263.273 8.24451 263.822 7.81534 264.462 7.58193C264.628 7.5217 264.801 7.48405 264.974 7.46899L265.162 7.49911Z" fill="#0033A0"/>
<path d="M294.812 34.5742C294.812 34.5742 294.744 34.642 294.601 34.7399C294.458 34.8377 294.24 35.0034 293.938 35.169C293.073 35.6509 292.146 36.0048 291.183 36.2231C289.699 36.5619 288.163 36.5921 286.665 36.321C284.73 35.9972 282.931 35.154 281.44 33.8815L281.756 33.8062C280.732 36.3361 278.624 38.2711 276.011 39.0767C273.158 39.8899 270.101 38.7906 268.422 36.3361L268.783 36.2683C268.572 37.2546 268.106 38.1732 267.428 38.9186C266.818 39.5887 266.095 40.1459 265.29 40.56C263.965 41.215 262.519 41.5764 261.043 41.6291C260.094 41.6818 259.138 41.6668 258.19 41.5839C257.851 41.5764 257.512 41.5312 257.181 41.4559C257.519 41.4334 257.858 41.4334 258.197 41.4559C259.138 41.4861 260.079 41.4635 261.021 41.3957C262.451 41.3054 263.844 40.9214 265.124 40.2739C266.758 39.4682 267.955 37.9699 268.384 36.2005L268.49 35.7036L268.753 36.1328C270.342 38.4141 273.21 39.4306 275.883 38.6701C278.368 37.8946 280.386 36.0575 281.38 33.6481L281.493 33.3997L281.696 33.5804C283.126 34.8152 284.858 35.6509 286.718 35.9897C288.171 36.2758 289.677 36.2758 291.13 35.9897C292.417 35.7036 293.66 35.2293 294.812 34.5742Z" fill="#0033A0"/>
<path d="M282.924 57.4104C282.924 57.4104 282.924 57.5234 282.788 57.689C282.593 57.9224 282.329 58.0881 282.035 58.1633C280.974 58.3968 279.875 58.3742 278.828 58.0881C277.254 57.6965 275.846 56.8307 274.8 55.5959C273.52 54.0599 272.857 52.1023 272.948 50.1071L273.286 50.2953C271.653 51.4021 269.703 51.9593 267.73 51.884C266.134 51.8313 264.568 51.4096 263.16 50.6416C262.219 50.1372 261.345 49.5123 260.577 48.7744C260.291 48.5184 260.035 48.2248 259.824 47.901C260.878 48.8647 262.053 49.693 263.31 50.3706C264.688 51.0708 266.209 51.4548 267.752 51.4924C269.642 51.5376 271.495 50.9955 273.061 49.9414L273.407 49.693V50.1673C273.219 53.706 275.523 56.8909 278.941 57.8245C279.942 58.1257 280.989 58.1935 282.02 58.0278C282.389 57.945 282.713 57.7191 282.924 57.4104Z" fill="#0033A0"/>
<path d="M234.284 12.4308C234.013 13.899 234.013 15.4048 234.284 16.873C234.977 20.457 237.635 23.3482 241.151 24.342C242.243 24.6583 243.38 24.7863 244.509 24.711H244.773V24.9745C244.524 26.518 244.577 28.0916 244.908 29.62C245.149 30.8247 245.563 31.9917 246.143 33.0835C246.361 33.4901 246.617 33.8891 246.896 34.258C247.084 34.5366 247.385 34.7173 247.724 34.7324C247.935 34.7324 248.131 34.6345 248.266 34.4764C248.357 34.3634 248.364 34.2731 248.379 34.2806C248.394 34.2882 248.379 34.371 248.334 34.514C248.206 34.7248 247.988 34.8604 247.739 34.8754C247.348 34.8905 246.971 34.7098 246.738 34.4011C246.429 34.0322 246.15 33.6331 245.902 33.219C245.239 32.1197 244.75 30.9301 244.456 29.6803C244.087 28.1142 244.02 26.4879 244.261 24.8917L244.487 25.1326C243.304 25.2154 242.115 25.0874 240.978 24.7561C239.005 24.1839 237.251 23.0244 235.948 21.4358C234.917 20.1181 234.224 18.5671 233.938 16.9182C233.75 15.8189 233.75 14.6971 233.938 13.5978C233.991 13.2966 234.059 13.003 234.156 12.7169C234.179 12.6115 234.224 12.5211 234.284 12.4308Z" fill="#0033A0"/>
<path d="M209.543 80.5327C207.623 82.031 207.284 84.7943 208.775 86.7142C209.453 87.5801 210.424 88.1598 211.508 88.3481" fill="#F8B679"/>
<path d="M198.853 159.522L214.521 156.382L256.843 152.422L272.782 153.431C272.782 153.431 265.253 191.612 225.928 190.956C204.868 190.61 198.853 159.522 198.853 159.522Z" fill="#F8B679"/>
<path d="M292.44 158.189C292.44 158.189 302.981 157.233 311.151 171.862C319.32 186.492 322.941 207.31 322.941 207.31L285.642 207.513L292.44 158.189Z" fill="#0033A0"/>
<path d="M178.064 318.374H298.178L289.813 268.937L288.352 203.854L295.445 158.483L269.845 152.03C269.845 152.03 263.822 181.575 230.746 180.122C197.67 178.669 200.531 158.287 200.531 158.287L168.607 171.019C168.607 171.019 177.929 230.869 186.783 245.596C195.637 260.323 193.657 270.54 193.657 270.54C193.657 270.54 182.386 296.065 178.064 318.374Z" fill="#0033A0"/>
<g opacity="0.3">
<path d="M182.897 298.632C217.088 317.192 259.598 320.467 296.529 308.239L293.75 292.255L186.609 287.737L182.897 298.632Z" fill="black"/>
</g>
<path d="M168.412 170.906C168.412 170.906 161.763 173.707 160.498 189.368C159.234 205.029 158.563 214.305 158.804 213.65C159.045 212.995 181.573 207.747 181.573 207.747L168.412 170.906Z" fill="#0033A0"/>
<path opacity="0.3" d="M198.852 272.34C198.852 272.34 202.391 262.206 201.826 255.339C201.261 248.472 193.438 172.803 193.438 172.803L200.554 158.257L188.507 164.785L182.897 182.742C182.897 182.742 191.534 267.167 192.588 268.854C193.642 270.54 198.852 272.34 198.852 272.34Z" fill="black"/>
<path d="M290.031 170.394C290.046 170.53 290.046 170.658 290.031 170.793C290.031 171.087 289.978 171.456 289.948 171.908C289.858 172.932 289.73 174.317 289.587 176.011C289.278 179.467 288.894 184.255 288.578 189.564C288.262 194.872 288.081 199.653 287.968 203.116C287.915 204.81 287.878 206.203 287.848 207.235C287.848 207.679 287.81 208.055 287.795 208.349C287.795 208.477 287.78 208.613 287.757 208.741C287.727 208.613 287.712 208.477 287.72 208.349V203.116C287.757 199.638 287.893 194.834 288.209 189.564C288.525 184.293 288.962 179.474 289.331 176.011C289.519 174.279 289.685 172.886 289.82 171.923C289.881 171.478 289.933 171.109 289.978 170.808C289.978 170.665 289.994 170.53 290.031 170.394Z" fill="#263238"/>
<path d="M243.575 250.498C243.184 250.302 242.815 250.084 242.461 249.828C241.761 249.383 240.767 248.713 239.547 247.862C237.1 246.168 233.795 243.729 230.286 240.853C226.778 237.977 223.721 235.221 221.575 233.165C220.498 232.141 219.647 231.298 219.068 230.696C218.759 230.402 218.465 230.086 218.194 229.747C218.548 229.996 218.872 230.282 219.173 230.59L221.763 232.97C223.954 234.965 227.034 237.683 230.535 240.552C234.036 243.42 237.311 245.89 239.705 247.637L242.551 249.707C242.913 249.94 243.259 250.204 243.575 250.498Z" fill="#263238"/>
<path d="M198.852 139.667C196.699 138.154 194.779 136.332 193.168 134.246C188.552 141.58 187.581 142.784 187.581 142.784L186.647 139.848V125.806C186.647 125.806 187.061 110.68 186.881 107.171C186.647 102.518 182.634 101.283 181.663 101.449C180.812 101.599 178.568 121.409 176.686 126.017C174.804 130.625 172.078 137.122 172.078 140.684C172.078 144.245 174.593 164.777 174.593 164.777L191.775 169.182C191.775 169.182 197.429 165.824 197.226 152.836C197.12 146.669 197.911 142.679 198.852 139.667Z" fill="#F8B679"/>
<g opacity="0.3">
<path d="M190.57 161.216C192.166 152.708 188.628 144.049 181.535 139.088L190.57 161.216Z" fill="black"/>
</g>
<path d="M181.558 138.689C182.07 138.274 182.484 137.762 182.792 137.183C183.131 136.483 183.274 135.699 183.214 134.924C183.191 134.435 183.131 133.953 183.026 133.478C182.943 132.966 182.725 132.484 182.386 132.093L182.311 132.025V131.95C182.92 128.773 183.688 124.737 184.569 120.249C184.682 118.985 184.908 117.69 185.081 116.372C185.33 114.369 185.51 112.359 184.803 110.65C184.502 109.814 183.982 109.076 183.297 108.511C182.634 107.999 181.896 107.608 181.106 107.337L181.332 107.209C180.632 110.74 180.037 113.699 179.615 115.837C179.404 116.846 179.231 117.652 179.103 118.254C179.05 118.54 178.975 118.826 178.885 119.105C178.9 118.811 178.937 118.525 178.998 118.239C179.103 117.629 179.239 116.816 179.412 115.8C179.803 113.654 180.353 110.68 181 107.141V106.945L181.196 107.013C182.024 107.292 182.8 107.698 183.493 108.233C184.231 108.828 184.788 109.603 185.119 110.492C185.48 111.41 185.661 112.389 185.654 113.375C185.654 114.384 185.578 115.393 185.435 116.387C185.262 117.72 185.029 119.015 184.916 120.257C184.02 124.729 183.214 128.765 182.582 131.935L182.521 131.784C182.928 132.221 183.191 132.771 183.274 133.358C183.372 133.855 183.425 134.359 183.432 134.864C183.478 135.669 183.304 136.483 182.928 137.198C182.695 137.642 182.371 138.041 181.987 138.372C181.866 138.508 181.723 138.613 181.558 138.689Z" fill="#9D4841"/>
<path d="M174.48 164.785C174.48 164.785 156.749 237.291 156.749 237.931C156.749 238.571 149.874 258.976 158.036 268.854C158.036 268.854 159.542 286.676 177.612 282.407C195.682 278.137 195.178 263.696 195.396 260.233C195.615 256.77 190.977 197.326 190.977 197.326L191.669 169.159L174.48 164.785Z" fill="#F8B679"/>
<path d="M192.603 268.854C193.906 269.223 209.996 274.651 209.996 274.651L200.336 295.733C200.336 295.733 197.113 295.944 191.097 294.438C185.082 292.932 173.494 286.909 173.494 286.909L170.482 287.557C170.482 287.557 176.227 293.324 172.063 297.653L163.322 290.531C163.322 290.531 161.063 286.118 164.03 283.046C165.814 281.217 173.697 275.081 173.697 275.081L192.603 268.854Z" fill="#F8B679"/>
<path d="M162.569 279.124C162.297 278.83 161.123 281.315 160.656 282.813C159.971 285.004 161.876 288.43 162.569 289.123C163.261 289.815 178.764 299.889 178.764 299.889C178.764 299.889 181.7 295.831 178.403 292.262L173.983 288.242L174.736 286.51L171.604 279.056L162.569 279.124Z" fill="#F8B679"/>
<path d="M210.003 274.651L289.707 270.714L287.765 207.31H320.532C320.532 207.31 322.038 237.487 322.708 245.905C323.378 254.322 323.596 275.811 322.708 284.229C321.819 292.646 317.49 303.052 301.182 305.499C289.617 307.238 200.343 295.711 200.343 295.711L210.003 274.651Z" fill="#F8B679"/>
<path d="M195.735 263.591C195.728 263.757 195.698 263.915 195.652 264.073C195.592 264.382 195.502 264.826 195.351 265.421C194.252 269.517 192.272 273.326 189.546 276.579C188.598 277.731 187.551 278.8 186.414 279.771C185.202 280.833 183.877 281.752 182.454 282.512C179.683 283.973 176.528 284.56 173.419 284.199C170.889 283.988 168.419 283.303 166.138 282.181C164.594 281.443 163.217 280.396 162.087 279.109C161.771 278.77 161.5 278.386 161.282 277.979C161.191 277.844 161.116 277.708 161.056 277.558C161.169 277.671 161.266 277.799 161.349 277.934C161.598 278.318 161.884 278.68 162.2 279.011C163.352 280.238 164.737 281.232 166.266 281.932C168.525 283.009 170.957 283.649 173.449 283.837C176.491 284.168 179.563 283.589 182.273 282.166C183.666 281.42 184.969 280.517 186.158 279.478C187.28 278.529 188.327 277.475 189.268 276.346C190.879 274.433 192.257 272.332 193.356 270.089C194.079 268.568 194.704 266.994 195.208 265.383L195.577 264.05C195.615 263.892 195.668 263.742 195.735 263.591Z" fill="#9D4841"/>
<path d="M193.438 294.943C193.318 294.95 193.19 294.95 193.069 294.943C192.828 294.943 192.474 294.875 192.015 294.807C190.743 294.559 189.478 294.227 188.251 293.813C184.192 292.405 180.254 290.704 176.452 288.709C175.391 288.166 174.374 287.624 173.388 287.082H173.516L170.504 287.722L170.549 287.383C171.204 287.926 171.754 288.573 172.191 289.303C172.62 289.973 172.981 290.628 173.313 291.253C173.96 292.338 174.156 293.64 173.862 294.867C173.644 295.651 173.26 296.381 172.733 297.006C172.56 297.239 172.349 297.442 172.108 297.608C172.108 297.608 172.311 297.382 172.635 296.93C173.109 296.298 173.448 295.583 173.644 294.815C173.922 293.64 173.719 292.405 173.094 291.374C172.763 290.756 172.394 290.109 171.965 289.461C171.558 288.791 171.046 288.189 170.459 287.67L170.12 287.414L170.512 287.331L173.523 286.676H173.591L173.651 286.713C174.63 287.248 175.662 287.79 176.716 288.325C180.503 290.312 184.411 292.044 188.424 293.52C189.643 293.956 190.878 294.325 192.136 294.627C192.572 294.709 193.009 294.815 193.438 294.943Z" fill="#9D4841"/>
<path d="M163.532 280.615C163.374 281.081 163.193 281.541 162.983 281.985C162.147 284.199 162.094 286.63 162.84 288.882C163.035 289.333 163.201 289.8 163.329 290.275C162.998 289.891 162.742 289.454 162.576 288.972C161.657 286.691 161.71 284.123 162.719 281.88C162.9 281.405 163.178 280.976 163.532 280.615Z" fill="#9D4841"/>
<path d="M306.422 287.715C306.332 287.715 306.226 286.277 305.466 284.078L305.157 283.227C305.044 282.934 304.894 282.64 304.758 282.331C304.457 281.676 304.118 281.036 303.749 280.411C302.876 279.003 301.852 277.693 300.692 276.504C299.51 275.344 298.2 274.32 296.792 273.447C296.175 273.07 295.527 272.732 294.872 272.43C294.563 272.295 294.277 272.137 293.976 272.024L293.125 271.715C290.934 270.962 289.481 270.842 289.496 270.751C289.835 270.751 290.174 270.774 290.505 270.834C290.904 270.872 291.296 270.947 291.687 271.045C292.199 271.15 292.704 271.286 293.193 271.452L294.066 271.745C294.368 271.851 294.669 272.001 294.985 272.137C295.663 272.43 296.318 272.762 296.958 273.138C299.879 274.862 302.318 277.302 304.035 280.231C304.404 280.863 304.735 281.526 305.029 282.196C305.165 282.52 305.315 282.813 305.421 283.122L305.707 283.995C305.88 284.485 306.015 284.989 306.113 285.501C306.211 285.885 306.286 286.277 306.324 286.676C306.392 287.014 306.429 287.368 306.422 287.715Z" fill="#9D4841"/>
<path d="M183.319 99.1978C183.38 99.386 183.425 99.5817 183.455 99.7775C183.538 100.192 183.643 100.749 183.771 101.441C184.035 102.947 184.404 105.018 184.863 107.585L186.444 116.696C187.137 120.393 188.221 124.007 189.674 127.478C191.074 130.971 193.19 134.126 195.886 136.754C198.122 138.877 200.659 140.654 203.415 142.024C204.469 142.544 205.568 142.988 206.69 143.342C207.541 143.605 208.414 143.786 209.295 143.884C210.048 143.944 210.801 143.944 211.554 143.884C210.816 144.049 210.048 144.095 209.295 144.019C208.399 143.952 207.511 143.786 206.645 143.537C205.5 143.199 204.386 142.777 203.309 142.265C200.516 140.91 197.941 139.133 195.682 136.995C192.942 134.337 190.796 131.129 189.388 127.583C187.912 124.089 186.82 120.445 186.135 116.718C185.533 113.277 185.059 110.183 184.629 107.585C184.2 104.988 183.876 102.917 183.666 101.426C183.568 100.726 183.485 100.161 183.425 99.7474C183.372 99.5667 183.334 99.386 183.319 99.1978Z" fill="#9D4841"/>
<path d="M399.153 245.927L384.094 319.872H253.357C251.911 319.872 250.744 318.705 250.744 317.259C250.744 315.814 251.911 314.647 253.357 314.647H279.671L293.638 245.882C293.917 244.58 295.069 243.639 296.401 243.623L396.322 242.532C397.903 242.524 399.191 243.789 399.206 245.37C399.206 245.558 399.191 245.739 399.153 245.927Z" fill="#E0E0E0"/>
<path d="M399.153 245.927V245.709C399.183 245.483 399.183 245.257 399.153 245.031C399.055 244.135 398.543 243.337 397.768 242.871C397.504 242.712 397.211 242.599 396.91 242.532C396.571 242.471 396.224 242.449 395.878 242.464H393.529L387.641 242.509L349.859 242.871L323.507 243.134L308.75 243.285L301.01 243.367L297.057 243.405H296.04C295.694 243.443 295.348 243.541 295.031 243.691C294.391 244.007 293.887 244.542 293.601 245.197C293.473 245.521 293.375 245.86 293.322 246.206L293.119 247.2C292.991 247.862 292.848 248.532 292.712 249.195C292.441 250.535 292.17 251.883 291.892 253.238L290.22 261.46C289.091 267.009 287.939 272.686 286.757 278.484C284.4 290.079 281.946 302.141 279.423 314.564L279.597 314.421H253.794C253.455 314.406 253.116 314.428 252.777 314.489C251.324 314.79 250.368 316.175 250.601 317.636C250.729 318.502 251.256 319.255 252.024 319.669C252.401 319.872 252.823 319.985 253.252 320H322.709L384.087 319.962H384.2V319.857C388.808 297.126 392.55 278.642 395.148 265.827C396.435 259.427 397.406 254.443 398.122 251.055L398.875 247.2C399.048 246.334 399.123 245.882 399.123 245.882C399.123 245.882 399.018 246.326 398.837 247.192C398.656 248.058 398.385 249.353 398.031 251.04C397.331 254.42 396.307 259.397 395.02 265.797C392.392 278.597 388.605 297.081 383.952 319.797L384.087 319.691H253.267C251.934 319.639 250.895 318.509 250.955 317.177C250.97 316.732 251.113 316.296 251.362 315.927C251.716 315.415 252.258 315.053 252.868 314.933C253.176 314.88 253.493 314.858 253.809 314.873H279.837V314.73C282.352 302.306 284.799 290.244 287.156 278.649C288.33 272.852 289.482 267.175 290.604 261.626C291.169 258.848 291.726 256.099 292.268 253.396C292.547 252.041 292.825 250.693 293.089 249.361L293.495 247.358L293.699 246.364C293.744 246.04 293.827 245.724 293.947 245.423C294.203 244.836 294.663 244.361 295.235 244.075C295.521 243.932 295.822 243.842 296.138 243.812H297.117L301.108 243.669L308.84 243.578L323.597 243.405L349.95 243.096L387.724 242.63L393.612 242.554L395.961 242.517C396.3 242.502 396.638 242.517 396.977 242.577C397.271 242.637 397.557 242.75 397.821 242.901C398.581 243.352 399.093 244.128 399.206 245.009C399.221 245.318 399.206 245.626 399.153 245.927Z" fill="#E3E7F2"/>
<path d="M338.912 279.809C338.912 282.196 340.847 284.131 343.234 284.131C345.621 284.131 347.556 282.196 347.556 279.809C347.556 277.422 345.621 275.487 343.234 275.487C340.855 275.487 338.92 277.422 338.92 279.801L338.912 279.809Z" fill="white"/>
<path d="M399.033 246.53H392.211L373.524 246.62L311.852 247.049L302.929 247.125H300.738C300.362 247.109 299.985 247.132 299.617 247.192C299.24 247.268 298.886 247.411 298.562 247.621C297.915 248.036 297.441 248.676 297.23 249.421C297.072 250.174 296.944 250.829 296.801 251.529C295.701 257.101 294.632 262.477 293.616 267.597C291.59 277.829 289.768 287.045 288.24 294.792C286.711 302.54 285.499 308.797 284.648 313.133C284.234 315.294 283.895 316.973 283.685 318.125C283.587 318.69 283.504 319.119 283.451 319.428C283.399 319.736 283.376 319.872 283.376 319.872C283.376 319.872 283.421 319.729 283.481 319.435C283.542 319.142 283.64 318.682 283.76 318.14C283.993 316.988 284.34 315.317 284.784 313.163C285.665 308.827 286.93 302.57 288.488 294.845C290.047 287.12 291.892 277.889 293.947 267.657C294.963 262.544 296.04 257.169 297.154 251.604C297.29 250.912 297.426 250.189 297.576 249.519C297.847 248.51 298.668 247.749 299.692 247.546C300.038 247.493 300.392 247.471 300.738 247.486H302.929L311.852 247.411L373.524 246.876L392.211 246.68L397.293 246.605H398.618L399.033 246.53Z" fill="#E3E7F2"/>
<path d="M448.929 186.451C445.652 182.463 440.524 183.816 437.105 180.469C433.402 176.837 439.242 173.988 435.467 170.071C431.906 166.367 425.852 171.424 422.362 168.362C421.222 167.365 420.937 165.299 420.083 164.017C418.801 162.237 417.447 161.311 415.097 161.026C411.322 160.599 405.766 165.513 408.829 169.003C409.897 170.213 412.889 169.003 412.248 171.851C411.821 173.845 409.47 173.062 408.473 174.344C406.692 176.623 408.9 176.837 409.399 178.902C410.04 181.395 408.758 182.107 407.191 183.602C404.698 186.024 401.778 192.362 406.906 194.499C410.182 195.852 415.595 188.801 416.521 196.35C417.803 207.104 398.145 199.199 399.926 208.315C400.353 210.594 403.416 211.449 402.704 213.656C402.134 215.294 399.356 215.152 399.427 217.787C399.499 219.568 401.493 220.493 401.564 222.203C401.635 224.054 399.997 224.98 399 226.333C401.707 225.265 403.131 224.197 403.843 222.203C404.484 220.493 403.915 218.713 405.838 217.858C408.117 216.861 410.111 219.71 412.105 216.505C414.741 212.232 408.9 210.309 414.67 206.819C418.231 204.683 422.362 206.036 425.709 203.33C429.199 200.481 426.066 194.428 431.977 194.071C438.672 193.644 435.182 200.41 437.533 203.686C439.954 207.176 445.724 204.897 448.145 202.475C452.348 198.345 452.561 190.867 448.929 186.451ZM419.94 193.787C417.376 193.288 417.091 188.445 413.245 188.588C411.536 188.659 410.895 190.439 409.399 190.51C406.835 190.653 407.618 188.374 408.473 186.807C409.328 185.24 410.681 184.955 411.821 183.816C412.96 182.748 413.815 180.825 415.382 180.184C418.16 179.044 421.721 181.466 420.866 184.457C418.658 187.092 421.65 187.591 422.362 189.015C423.217 190.724 422.789 194.428 419.94 193.787ZM444.94 197.704C444.086 198.202 443.16 198.487 442.162 198.416C441.165 198.273 440.239 197.775 439.741 196.92C439.242 196.066 439.242 194.926 439.812 194.143C440.382 193.359 441.379 193.003 441.878 192.22C442.376 191.294 442.091 190.154 441.379 189.371C440.667 188.588 439.67 188.232 438.672 188.018C436.821 187.519 434.826 187.448 433.117 186.522C430.553 185.169 429.128 181.893 429.841 179.116C429.983 178.617 430.125 178.119 430.482 177.762C430.98 177.193 432.262 176.694 432.405 177.834C432.405 178.19 432.333 178.475 432.262 178.831C431.835 180.682 432.832 182.676 434.256 183.958C435.681 185.24 437.533 185.953 439.385 186.593C441.165 187.234 443.088 187.875 444.584 189.086C446.151 190.226 447.291 192.077 447.219 194C447.148 195.496 446.222 196.92 444.94 197.704Z" fill="#B7B7B7"/>
</svg>
